<?xml version="1.0" encoding="utf-8"?>
<!-- Generator: Adobe Illustrator 24.0.0, SVG Export Plug-In . SVG Version: 6.00 Build 0)  -->
<svg version="1.1" id="Layer_1" xmlns="http://www.w3.org/2000/svg" xmlns:xlink="http://www.w3.org/1999/xlink" x="0px" y="0px"
	 viewBox="0 0 97.3 96.1" style="enable-background:new 0 0 97.3 96.1;" xml:space="preserve">
<style type="text/css">
	.st0{opacity:0.14;}
	.st1{fill:#FFFFFF;}
</style>
<title>pattern1</title>
<g class="st0">
	<path class="st1" d="M95.9,47.4C95.8,47.4,95.8,47.4,95.9,47.4l-1.1-1.1v-0.1c0,0,0,0,0.1,0l1.4-0.3h0.1V46L95.9,47.4L95.9,47.4
		L95.9,47.4z M95,46.3l0.8,0.9l0.4-1.1L95,46.3z"/>
	<path class="st1" d="M30,95.3L30,95.3L29.1,95c0,0,0,0-0.1,0v-0.1l0.7-0.6h0.1c0,0,0.1,0,0.1,0.1L30,95.3
		C30.1,95.3,30.1,95.3,30,95.3L30,95.3z M29.3,94.9l0.6,0.2l-0.1-0.6L29.3,94.9z"/>
	<path class="st1" d="M59.5,23.5L59.5,23.5L59.5,23.5L59.3,22c0,0,0,0,0-0.1h0.1l1.3,0.6c0,0,0,0,0,0.1v0.1L59.5,23.5L59.5,23.5z
		 M59.5,22.2l0.1,1.1l0.9-0.6L59.5,22.2z"/>
	<path class="st1" d="M47.4,45.9C47.4,45.9,47.3,45.9,47.4,45.9L46.7,45v-0.1c0,0,0,0,0.1,0h1.1c0,0,0,0,0.1,0V45L47.4,45.9
		C47.4,46,47.4,46,47.4,45.9L47.4,45.9z M47,45l0.4,0.7l0.4-0.7H47z"/>
	<path class="st1" d="M79.4,83.4L79.4,83.4C79.4,83.4,79.4,83.3,79.4,83.4l-0.7-4.3V79h0.1l4,1.5c0,0,0,0,0,0.1v0.1L79.4,83.4
		L79.4,83.4z M78.9,79.2l0.6,3.9l3.1-2.5L78.9,79.2z"/>
	<path class="st1" d="M12.4,34.9L12.4,34.9C12.4,34.9,12.4,34.8,12.4,34.9l0.2-2c0,0,0-0.1,0.1-0.1h0.1l1.5,1.2v0.1
		c0,0,0,0.1-0.1,0.1L12.4,34.9L12.4,34.9z M12.8,33.1l-0.3,1.6l1.5-0.6L12.8,33.1z"/>
	<path class="st1" d="M37.4,60.3C37.3,60.3,37.3,60.3,37.4,60.3C37.3,60.3,37.3,60.3,37.4,60.3l0.3-1.5c0,0,0-0.1,0.1-0.1h0.1l1.1,1
		v0.1c0,0,0,0-0.1,0.1L37.4,60.3L37.4,60.3z M37.8,58.9l-0.3,1.2l1.2-0.3L37.8,58.9z"/>
	<path class="st1" d="M33,27.8L33,27.8l-1.8-0.7c0,0,0,0,0-0.1v-0.1l1.5-1.2h0.1c0,0,0,0,0,0.1L33,27.8C33.1,27.7,33.1,27.8,33,27.8
		C33.1,27.8,33.1,27.8,33,27.8z M31.4,27l1.5,0.6L32.7,26L31.4,27z"/>
	<path class="st1" d="M1.9,87.5L1.9,87.5C1.8,87.5,1.8,87.5,1.9,87.5l-0.3-1.1v-0.1h0.1l1,0.3c0,0,0,0,0,0.1v0.1L1.9,87.5L1.9,87.5z
		 M1.8,86.5L2,87.2l0.5-0.5L1.8,86.5z"/>
	<path class="st1" d="M22.2,45.5L22.2,45.5l-3.5-2c0,0,0,0,0-0.1v-0.1l3.4-2h0.1c0,0,0,0,0,0.1V45.5C22.3,45.4,22.3,45.4,22.2,45.5
		L22.2,45.5z M18.9,43.5l3.2,1.8L22,41.6L18.9,43.5z"/>
	<path class="st1" d="M73.5,48.7L73.5,48.7C73.4,48.6,73.4,48.6,73.5,48.7l-0.2-0.9v-0.1h0.1l0.8,0.3c0,0,0,0,0,0.1v0.1L73.5,48.7
		L73.5,48.7z M73.5,47.9l0.1,0.5L74,48L73.5,47.9z"/>
	<path class="st1" d="M14.3,11.4L14.3,11.4l-2.7-1c0,0-0.1,0-0.1-0.1v-0.1l2.3-1.8h0.1c0,0,0,0,0,0.1L14.3,11.4
		C14.4,11.4,14.4,11.4,14.3,11.4L14.3,11.4z M11.8,10.3l2.4,0.9l-0.4-2.6L11.8,10.3z"/>
	<path class="st1" d="M95.8,25.7L95.8,25.7l-1.3-0.4c0,0-0.1,0-0.1-0.1v-0.1l1-1h0.1c0,0,0.1,0,0.1,0.1l0.3,1.4
		C95.9,25.6,95.9,25.6,95.8,25.7L95.8,25.7z M94.6,25.1l1.1,0.3l-0.2-1.1L94.6,25.1z"/>
	<path class="st1" d="M80.7,90.4L80.7,90.4l-3.3-0.2c0,0,0,0-0.1,0v-0.1l1.9-2.8h0.1c0,0,0,0,0.1,0L80.7,90.4
		C80.8,90.3,80.8,90.3,80.7,90.4L80.7,90.4z M77.5,90l3,0.2l-1.3-2.7L77.5,90z"/>
	<path class="st1" d="M12.2,54.4L12.2,54.4l-1.4-0.2c0,0,0,0-0.1,0v-0.1l0.8-1.1h0.1c0,0,0,0,0.1,0L12.2,54.4
		C12.3,54.3,12.3,54.3,12.2,54.4C12.3,54.4,12.3,54.4,12.2,54.4z M11,54l1.1,0.1l-0.4-1L11,54z"/>
	<path class="st1" d="M70.8,3.2L70.8,3.2C70.8,3.2,70.7,3.2,70.8,3.2l-0.4-2.3V0.8h0.1l2.1,0.8c0,0,0.1,0,0.1,0.1v0.1L70.8,3.2
		L70.8,3.2z M70.6,1.1L70.9,3l1.5-1.2L70.6,1.1z"/>
	<path class="st1" d="M91.6,9.8L91.6,9.8L90,9.7c0,0,0,0-0.1,0V9.6l0.9-1.3c0,0,0,0,0.1,0c0,0,0,0,0.1,0L91.6,9.8
		C91.7,9.8,91.7,9.8,91.6,9.8C91.6,9.9,91.6,9.9,91.6,9.8z M90.2,9.6l1.2,0.1l-0.5-1.1L90.2,9.6z"/>
	<path class="st1" d="M9,91.4L9,91.4l-2.7-2.2v-0.1c0,0,0-0.1,0.1-0.1l3.2-1.2h0.1v0.1L9,91.4C9.1,91.4,9.1,91.4,9,91.4L9,91.4z
		 M6.6,89.2l2.4,2l0.6-3.1L6.6,89.2z"/>
	<path class="st1" d="M37,5.8L37,5.8L37,5.8l-0.3-0.9V4.8h0.1L37.6,5c0,0,0.1,0,0.1,0.1v0.1L37,5.8L37,5.8z M37,5l0.1,0.6l0.4-0.4
		L37,5z"/>
	<path class="st1" d="M25.3,61.2L25.3,61.2l-3.1-1c0,0-0.1,0-0.1-0.1V60l2.5-2.2h0.1c0,0,0.1,0,0.1,0.1L25.3,61.2
		C25.3,61.1,25.3,61.2,25.3,61.2L25.3,61.2z M22.3,60l2.9,1l-0.6-3L22.3,60z"/>
	<path class="st1" d="M11.2,29.1L11.2,29.1l-0.7-0.6v-0.1c0,0,0-0.1,0.1-0.1l0.9-0.3h0.1v0.1L11.2,29.1C11.3,29,11.3,29.1,11.2,29.1
		L11.2,29.1z M10.7,28.4l0.4,0.4l0.1-0.6L10.7,28.4z"/>
	<path class="st1" d="M83.8,90.8L83.8,90.8C83.7,90.8,83.7,90.7,83.8,90.8L83.6,86c0,0,0,0,0-0.1h0.1l4.2,2.2c0,0,0,0,0,0.1v0.1
		L83.8,90.8L83.8,90.8z M83.7,86.1l0.2,4.5l3.8-2.4L83.7,86.1z"/>
	<path class="st1" d="M18.6,9.5L18.6,9.5C18.5,9.5,18.5,9.5,18.6,9.5L17.7,6V5.9h0.1l3.4,1c0,0,0.1,0,0.1,0.1v0.1L18.6,9.5L18.6,9.5
		z M17.9,6.1l0.7,3.2L21,7L17.9,6.1z"/>
	<path class="st1" d="M15.3,90.4L15.3,90.4L15.3,90.4l-1.1-2.1v-0.1h0.1l2.3,0.1h0.1v0.1L15.3,90.4C15.4,90.4,15.4,90.4,15.3,90.4z
		 M14.4,88.3l0.9,1.8l1.1-1.7L14.4,88.3z"/>
	<path class="st1" d="M34.9,80.8C34.8,80.8,34.8,80.8,34.9,80.8C34.8,80.8,34.8,80.7,34.9,80.8l0.8-3.6c0,0,0-0.1,0.1-0.1h0.1
		l2.6,2.5v0.1c0,0,0,0.1-0.1,0.1L34.9,80.8L34.9,80.8z M35.8,77.4L35,80.6l3.2-0.9L35.8,77.4z"/>
	<path class="st1" d="M41.8,77.2L41.8,77.2C41.8,77.1,41.8,77.1,41.8,77.2l0.1-1c0,0,0-0.1,0.1-0.1h0.1l0.8,0.6v0.1v0.1L41.8,77.2
		L41.8,77.2z M42,76.3l-0.1,0.6l0.6-0.2L42,76.3z"/>
	<path class="st1" d="M95.8,2.6L95.8,2.6L94.6,2c0,0-0.1,0-0.1-0.1V1.8l1-0.7h0.1c0,0,0,0,0,0.1l0.1,1.3C95.7,2.5,95.7,2.5,95.8,2.6
		L95.8,2.6z M94.8,1.9l0.9,0.4l-0.1-1L94.8,1.9z"/>
	<path class="st1" d="M48.4,10.2L48.4,10.2l-1.9-0.9V9.2c0,0,0,0,0-0.1L48.3,8h0.1c0,0,0,0,0,0.1L48.4,10.2
		C48.5,10.1,48.5,10.2,48.4,10.2L48.4,10.2z M46.7,9.2l1.6,0.8l-0.1-1.8L46.7,9.2z"/>
	<path class="st1" d="M82.2,12.7L82.2,12.7L82.2,12.7L81,7.5V7.4h0.1l5,1.6c0,0,0.1,0,0.1,0.1v0.1L82.2,12.7
		C82.3,12.7,82.3,12.7,82.2,12.7z M81.2,7.6l1,4.9L86,9.2L81.2,7.6z"/>
	<path class="st1" d="M42,52.2L42,52.2C42,52.1,42,52.1,42,52.2l2.2-4.3h0.1h0.1l2.5,4V52c0,0,0,0-0.1,0L42,52.2z M44.3,48.1
		L42.2,52l4.4-0.1L44.3,48.1z"/>
	<path class="st1" d="M86.2,81.7C86.2,81.7,86.1,81.7,86.2,81.7C86.1,81.7,86.1,81.7,86.2,81.7l0.2-1.2c0,0,0-0.1,0.1-0.1h0.1
		l0.8,0.8v0.1c0,0,0,0.1-0.1,0.1L86.2,81.7L86.2,81.7z M86.5,80.7l-0.2,0.8l0.8-0.3L86.5,80.7z"/>
	<path class="st1" d="M31.7,52.6C31.7,52.7,31.6,52.7,31.7,52.6l-0.8-0.9v-0.1c0,0,0-0.1,0.1-0.1l1.1-0.2h0.1v0.1L31.7,52.6
		L31.7,52.6L31.7,52.6z M31.2,51.7l0.5,0.7l0.3-0.8L31.2,51.7z"/>
	<path class="st1" d="M68.8,67.3L68.8,67.3C68.8,67.2,68.8,67.2,68.8,67.3l1.8-4.5c0,0,0,0,0.1-0.1h0.1l2.8,3.8v0.1l0,0L68.8,67.3
		L68.8,67.3z M70.8,63L69,67.1l4.4-0.5L70.8,63z"/>
	<path class="st1" d="M87.8,17L87.8,17L87.8,17l-1.1-3.2v-0.1h0.1l3.3,0.7c0,0,0.1,0,0.1,0.1v0.1L87.8,17C87.9,17,87.8,17,87.8,17z
		 M86.9,13.8l1,2.9l2.1-2.3L86.9,13.8z"/>
	<path class="st1" d="M6.8,50L6.8,50L6.8,50l-1-3.8c0,0,0-0.1,0.1-0.1l0,0l3.7,1.1c0,0,0.1,0,0.1,0.1v0.1L6.8,50
		C6.8,50,6.8,50.1,6.8,50z M6,46.4l0.8,3.4l2.5-2.4L6,46.4z"/>
	<path class="st1" d="M24.8,22.5L24.8,22.5l-1.5-0.8c0,0,0,0,0-0.1v-0.1l1.5-0.9h0.1v0.1v1.8C24.9,22.5,24.9,22.5,24.8,22.5
		L24.8,22.5z M23.5,21.6l1.3,0.7v-1.5L23.5,21.6z"/>
	<path class="st1" d="M57.8,81.3C57.8,81.3,57.7,81.3,57.8,81.3C57.7,81.2,57.7,81.2,57.8,81.3l0.3-0.8h0.1c0,0,0,0,0.1,0l0.5,0.7
		v0.1h-0.1L57.8,81.3L57.8,81.3z M58.2,80.6l-0.3,0.5h0.6L58.2,80.6z"/>
	<path class="st1" d="M38.2,54.3L38.2,54.3l-0.7-1v-0.1h0.1h1.1c0,0,0,0,0.1,0v0.1L38.2,54.3C38.3,54.3,38.3,54.3,38.2,54.3
		L38.2,54.3z M37.8,53.3l0.4,0.7l0.4-0.7H37.8z"/>
	<path class="st1" d="M96.1,62.8L96.1,62.8l-3.2-0.7c0,0,0,0-0.1,0V62l2.2-2.5h0.1c0,0,0,0,0.1,0.1L96.1,62.8
		C96.2,62.8,96.2,62.8,96.1,62.8C96.2,62.8,96.1,62.8,96.1,62.8z M93,62l2.9,0.6L95,59.8L93,62z"/>
	<path class="st1" d="M31.8,89.6C31.8,89.6,31.7,89.6,31.8,89.6l-0.5-0.7v-0.1c0,0,0,0,0.1,0h0.9h0.1v0.1L31.8,89.6L31.8,89.6
		L31.8,89.6z M31.5,88.8l0.3,0.5l0.3-0.5H31.5z"/>
	<path class="st1" d="M88.7,5L88.7,5C88.7,5,88.6,5,88.7,5l-2-3.9V1h0.1L91,1.2c0,0,0,0,0.1,0v0.1L88.7,5L88.7,5z M86.9,1.2l1.8,3.5
		l2.2-3.3L86.9,1.2z"/>
	<path class="st1" d="M40.6,2.9C40.6,2.9,40.5,2.9,40.6,2.9l-1.2-1.6V1.2c0,0,0,0,0.1,0L41.4,1h0.1v0.1L40.6,2.9
		C40.6,2.8,40.6,2.9,40.6,2.9L40.6,2.9z M39.7,1.3l0.9,1.3l0.7-1.5L39.7,1.3z"/>
	<path class="st1" d="M17.8,1.8L17.8,1.8C17.8,1.8,17.8,1.7,17.8,1.8v-1V0.7h0.1l0.8,0.4c0,0,0,0,0,0.1v0.1L18,1.8H17.8z M17.9,0.9
		v0.6l0.5-0.3L17.9,0.9z"/>
	<path class="st1" d="M90.5,23.6L90.5,23.6l-3.3-0.9c0,0,0,0-0.1-0.1v-0.1l2.4-2.5h0.1c0,0,0.1,0,0.1,0.1L90.5,23.6
		C90.6,23.6,90.6,23.6,90.5,23.6L90.5,23.6z M87.3,22.6l3,0.8l-0.8-3L87.3,22.6z"/>
	<path class="st1" d="M43.7,31.5L43.7,31.5l-2-0.1c0,0,0,0-0.1,0v-0.1l1.1-1.7h0.1c0,0,0,0,0.1,0l0.9,1.8L43.7,31.5
		C43.8,31.5,43.7,31.5,43.7,31.5z M41.8,31.2l1.7,0.1l-0.8-1.5L41.8,31.2z"/>
	<path class="st1" d="M95.5,79.9L95.5,79.9l-4.6-2.2c0,0,0,0,0-0.1v-0.1l4.2-2.8h0.1c0,0,0,0,0,0.1L95.5,79.9
		C95.6,79.8,95.6,79.9,95.5,79.9L95.5,79.9z M91.1,77.6l4.3,2.1L95,74.9L91.1,77.6z"/>
	<path class="st1" d="M66,41.2L66,41.2l-1.1-0.4c0,0-0.1,0-0.1-0.1v-0.1l0.9-0.8h0.1c0,0,0.1,0,0.1,0.1L66,41.2
		C66.1,41.1,66.1,41.1,66,41.2C66.1,41.2,66.1,41.2,66,41.2z M65.1,40.7l0.8,0.3l-0.2-0.8L65.1,40.7z"/>
	<path class="st1" d="M62.7,17.7L62.7,17.7L62.7,17.7l-0.4-1.4c0,0,0-0.1,0.1-0.1l0,0l1.3,0.4c0,0,0.1,0,0.1,0.1v0.1L62.7,17.7
		L62.7,17.7z M62.5,16.4l0.3,1l0.8-0.8L62.5,16.4z"/>
	<path class="st1" d="M44,15.2L44,15.2C43.9,15.2,43.9,15.1,44,15.2l-0.7-2.1V13h0.1l2.1,0.5c0,0,0,0,0.1,0.1v0.1L44,15.2L44,15.2z
		 M43.5,13.2l0.6,1.8l1.3-1.4L43.5,13.2z"/>
	<path class="st1" d="M2,3L2,3L2,3L1.3,0.4V0.3h0.1L3.9,1l0,0v0.1L2,3L2,3z M1.4,0.5L2,2.7L3.6,1L1.4,0.5z"/>
	<path class="st1" d="M11.3,40.3L11.3,40.3C11.2,40.2,11.2,40.2,11.3,40.3l0.6-1.7c0,0,0,0,0.1,0h0.1l1.1,1.4v0.1c0,0,0,0-0.1,0
		L11.3,40.3L11.3,40.3z M12,38.7l-0.6,1.4l1.5-0.2L12,38.7z"/>
	<path class="st1" d="M12.4,61.8C12.3,61.8,12.3,61.8,12.4,61.8l-2.1-3v-0.1c0,0,0,0,0.1,0l3.6-0.2c0,0,0,0,0.1,0v0.1L12.4,61.8
		C12.4,61.8,12.3,61.8,12.4,61.8L12.4,61.8z M10.5,58.8l1.8,2.8l1.5-3L10.5,58.8z"/>
	<path class="st1" d="M55,54.4L55,54.4L55,54.4l-0.3-2.6v-0.1h0.1l2.3,1c0,0,0.1,0,0.1,0.1c0,0,0,0,0,0.1l-2,1.5H55z M54.8,52
		l0.3,2.2l1.8-1.3L54.8,52z"/>
	<path class="st1" d="M25.5,15.4L25.5,15.4l-3.9-0.2c0,0,0,0-0.1,0v-0.1l2.1-3.2h0.1c0,0,0,0,0.1,0L25.5,15.4
		C25.6,15.3,25.6,15.4,25.5,15.4C25.6,15.4,25.5,15.4,25.5,15.4z M21.8,15l3.6,0.2L23.8,12L21.8,15z"/>
	<path class="st1" d="M3,20.9L3,20.9H1.7H1.6v-0.1l0.7-1.1h0.1c0,0,0,0,0.1,0L3,20.8C3.1,20.8,3.1,20.8,3,20.9L3,20.9z M1.9,20.7h1
		l-0.5-0.8L1.9,20.7z"/>
	<path class="st1" d="M76.6,14.9L76.6,14.9l-0.8-0.3c0,0,0,0,0-0.1v-0.1l0.7-0.5h0.1c0,0,0,0,0,0.1L76.6,14.9
		C76.7,14.8,76.7,14.9,76.6,14.9C76.7,14.9,76.6,14.9,76.6,14.9z M75.9,14.5l0.5,0.2l-0.1-0.6L75.9,14.5z"/>
	<path class="st1" d="M95.7,84.7L95.7,84.7l-0.9-0.9v-0.1c0,0,0-0.1,0.1-0.1l1.1-0.3h0.1v0.1L95.7,84.7
		C95.8,84.7,95.7,84.7,95.7,84.7L95.7,84.7z M95.1,83.8l0.6,0.6l0.3-0.8L95.1,83.8z"/>
	<path class="st1" d="M52.3,95.5L52.3,95.5l-3.6-0.1c0,0,0,0-0.1,0v-0.1l1.9-3.1h0.1c0,0,0,0,0.1,0L52.3,95.5
		C52.4,95.4,52.4,95.5,52.3,95.5C52.4,95.5,52.3,95.5,52.3,95.5z M48.8,95.2l3.3,0.1l-1.6-2.9L48.8,95.2z"/>
	<path class="st1" d="M88.6,68.5L88.6,68.5C88.5,68.5,88.5,68.5,88.6,68.5l0.8-3.1c0,0,0-0.1,0.1-0.1h0.1l2.2,2.2v0.1
		c0,0,0,0.1-0.1,0.1L88.6,68.5L88.6,68.5z M89.4,65.5l-0.8,2.8l2.8-0.7L89.4,65.5z"/>
	<path class="st1" d="M42.4,89.1L42.4,89.1L42.4,89.1v-1V88h0.1l0.8,0.4c0,0,0,0,0,0.1v0.1L42.4,89.1L42.4,89.1z M42.5,88.3v0.6
		l0.5-0.3L42.5,88.3z"/>
	<path class="st1" d="M64.2,11.1C64.1,11.1,64.1,11.1,64.2,11.1l-2.9-3.2V7.8c0,0,0-0.1,0.1-0.1l4.1-0.8h0.1V7L64.2,11.1
		C64.2,11,64.2,11.1,64.2,11.1L64.2,11.1z M61.5,7.9l2.6,2.9l1.3-3.7L61.5,7.9z"/>
	<path class="st1" d="M46.7,19L46.7,19L46.7,19l-0.1-1.1v-0.1h0.1l0.9,0.4c0,0,0,0,0,0.1v0.1L46.7,19L46.7,19z M46.7,18.1l0.1,0.7
		l0.5-0.4L46.7,18.1z"/>
	<path class="st1" d="M11.9,70.9L11.9,70.9l-4.4-1c0,0-0.1,0-0.1-0.1v-0.1l3.1-3.3h0.1c0,0,0.1,0,0.1,0.1L11.9,70.9
		C12,70.9,12,70.9,11.9,70.9C12,71,11.9,70.9,11.9,70.9z M7.7,69.8l4.1,1l-1.2-4L7.7,69.8z"/>
	<path class="st1" d="M65.1,89.7L65.1,89.7l-1.5-0.4c0,0-0.1,0-0.1-0.1v-0.1l1.1-1.1h0.1c0,0,0.1,0,0.1,0.1L65.1,89.7
		C65.2,89.6,65.2,89.6,65.1,89.7L65.1,89.7z M63.8,89.1l1.2,0.3l-0.3-1.2L63.8,89.1z"/>
	<path class="st1" d="M75.8,9.7L75.8,9.7L75.8,9.7l-0.3-1.2V8.4h0.1l1.1,0.4c0,0,0.1,0,0.1,0.1V9L75.8,9.7
		C75.9,9.7,75.9,9.7,75.8,9.7z M75.7,8.6l0.2,0.8l0.6-0.6L75.7,8.6z"/>
	<path class="st1" d="M1.5,34.2L1.5,34.2L1.5,34.2l-0.6-1.7v-0.1H1l1.7,0.3c0,0,0.1,0,0.1,0.1v0.1L1.5,34.2
		C1.6,34.2,1.6,34.2,1.5,34.2z M1.1,32.6l0.4,1.3l0.9-1.1L1.1,32.6z"/>
	<path class="st1" d="M61.3,2L61.3,2l-0.9-0.6c0,0,0,0,0-0.1V1.2l1-0.5h0.1c0,0,0,0,0,0.1l-0.1,1.1C61.4,1.9,61.4,1.9,61.3,2L61.3,2
		z M60.6,1.3l0.7,0.5V1L60.6,1.3z"/>
	<path class="st1" d="M82.6,2.5C82.6,2.5,82.5,2.5,82.6,2.5l-0.7-1.1V1.3c0,0,0,0,0.1,0h1.3h0.1v0.1L82.6,2.5
		C82.7,2.5,82.7,2.5,82.6,2.5L82.6,2.5z M82,1.4l0.5,0.8L83,1.4H82z"/>
	<path class="st1" d="M51,16.1L51,16.1C50.9,16.2,50.9,16.2,51,16.1l-0.6-0.9v-0.1h0.1h1c0,0,0,0,0.1,0v0.1L51,16.1
		C51,16.2,51,16.2,51,16.1z M50.6,15.3l0.3,0.6l0.4-0.6H50.6z"/>
	<path class="st1" d="M62.8,35.5L62.8,35.5C62.7,35.5,62.7,35.5,62.8,35.5l0.7-2.6c0,0,0,0,0.1,0h0.1l1.8,1.9v0.1c0,0,0,0.1-0.1,0.1
		L62.8,35.5L62.8,35.5z M63.6,33.1l-0.7,2.2l2.3-0.5L63.6,33.1z"/>
	<path class="st1" d="M24.4,73.3c-0.1,0-0.1,0-0.2,0s-0.2-0.1-0.2,0h-0.1v-0.1l0,0c0.1-0.1,0.3-0.1,0.4,0S24.5,73.3,24.4,73.3
		c0.1-0.2,0.1-0.2,0-0.3s-0.2-0.3-0.1-0.4s0.3-0.1,0.4,0s0.2,0,0.2,0s0-0.1-0.1-0.2s-0.2-0.3-0.1-0.4s0.3-0.1,0.4,0s0.2,0,0.2,0
		s0-0.1-0.1-0.2s-0.2-0.3-0.1-0.4h0.1l0,0v0.1l0,0c0,0,0,0.1,0.1,0.2s0.2,0.3,0.1,0.4s-0.3,0.1-0.4,0s-0.2,0-0.2,0s0,0.1,0.1,0.2
		s0.2,0.3,0.1,0.4s-0.3,0.1-0.4,0s-0.2-0.1-0.2,0s0,0.1,0.1,0.2s0.2,0.3,0.1,0.4C24.5,73.3,24.4,73.3,24.4,73.3z"/>
	<path class="st1" d="M17.7,38.7L17.7,38.7c-0.1,0-0.1-0.1-0.1-0.1l0,0c0.3-0.1,0.2-0.6,0.1-1s-0.2-1,0.2-1.2s0.7,0.1,1.1,0.4
		s0.7,0.5,0.9,0.4s0.2-0.6,0.1-1s-0.2-1,0.2-1.2s0.7,0.1,1.1,0.4s0.7,0.5,0.9,0.4s0.2-0.6,0.1-1s-0.2-1,0.2-1.2s0.7,0.1,1.1,0.4
		s0.7,0.5,0.9,0.4h0.1l0,0v0.1l0,0c-0.4,0.2-0.8-0.1-1.1-0.4s-0.7-0.5-0.9-0.4s-0.2,0.6-0.1,1s0.2,1-0.2,1.2s-0.7-0.1-1.1-0.4
		s-0.7-0.5-0.9-0.4s-0.2,0.6-0.1,1s0.2,1-0.2,1.2s-0.7-0.1-1.1-0.4s-0.7-0.5-0.9-0.4s-0.2,0.6-0.1,1S18.1,38.5,17.7,38.7L17.7,38.7z
		"/>
	<path class="st1" d="M69.2,19.2L69.2,19.2l-0.1-0.1c0.1-0.3-0.3-0.6-0.6-0.9s-0.8-0.7-0.7-1.1s0.7-0.4,1.2-0.5s0.9,0,1-0.3
		s-0.3-0.6-0.6-0.9s-0.8-0.7-0.7-1.1s0.7-0.4,1.2-0.4s0.9-0.1,1-0.3s-0.3-0.6-0.6-0.9s-0.8-0.7-0.7-1.1s0.7-0.4,1.2-0.5
		s0.9-0.1,1-0.3l0.1-0.1l0.1,0.1c-0.1,0.4-0.7,0.4-1.2,0.5s-0.9,0.1-1,0.3s0.3,0.6,0.6,0.9s0.8,0.7,0.7,1.1C71,14,70.4,14,69.9,14.1
		s-0.9,0-1,0.3s0.3,0.6,0.6,0.9s0.8,0.7,0.7,1.1s-0.7,0.4-1.2,0.5s-0.9,0.1-1,0.3s0.3,0.6,0.6,0.9S69.4,18.8,69.2,19.2
		C69.3,19.2,69.2,19.2,69.2,19.2L69.2,19.2z"/>
	<path class="st1" d="M18.1,19.1C18.1,19.1,18,19,18.1,19.1c-0.1-0.2-0.3-0.3-0.5-0.3S17,18.6,17,18.4s0.2-0.4,0.5-0.5
		s0.4-0.2,0.4-0.4s-0.3-0.2-0.5-0.3s-0.6-0.1-0.6-0.4s0.2-0.4,0.5-0.5s0.4-0.2,0.4-0.4s-0.3-0.2-0.5-0.2s-0.6-0.1-0.6-0.4
		s0.2-0.4,0.5-0.5s0.4-0.2,0.4-0.4c0,0,0-0.1,0.1-0.1s0.1,0,0.1,0.1c0,0,0,0,0,0.1c0,0.3-0.2,0.4-0.5,0.5s-0.4,0.2-0.4,0.4
		s0.3,0.2,0.5,0.3s0.6,0.1,0.6,0.4s-0.2,0.4-0.5,0.5S17,16.8,17,17s0.3,0.2,0.5,0.3s0.6,0.1,0.6,0.4s-0.2,0.4-0.5,0.5
		s-0.4,0.2-0.4,0.4s0.3,0.2,0.5,0.2s0.6,0.1,0.6,0.4C18.2,19,18.2,19.1,18.1,19.1L18.1,19.1z"/>
	<path class="st1" d="M71.2,44c-0.2,0-0.4-0.3-0.5-0.5s-0.2-0.4-0.4-0.4h-0.1l0,0c0,0,0-0.1,0.1-0.1l0,0c0.3,0,0.4,0.2,0.6,0.5
		S71.1,43.9,71.2,44c0.3-0.1,0.3-0.4,0.4-0.6s0.1-0.6,0.4-0.6s0.4,0.2,0.6,0.5s0.3,0.4,0.4,0.4s0.2-0.3,0.3-0.5s0.2-0.6,0.4-0.6
		s0.4,0.2,0.6,0.5s0.2,0.4,0.4,0.4s0.2-0.3,0.3-0.5s0.2-0.6,0.4-0.6h0.1l0,0c0,0,0,0.1-0.1,0.1l0,0c-0.1,0-0.2,0.3-0.3,0.5
		s-0.2,0.6-0.4,0.6s-0.4-0.2-0.6-0.5s-0.3-0.4-0.4-0.4s-0.2,0.3-0.3,0.5s-0.2,0.6-0.4,0.6s-0.4-0.2-0.6-0.5s-0.2-0.4-0.4-0.4
		s-0.2,0.3-0.3,0.5S71.5,44,71.2,44L71.2,44z"/>
	<path class="st1" d="M40.7,19.6c-0.1,0-0.2,0-0.3-0.1c-0.3-0.2-0.2-0.6,0-1s0.2-0.7,0-0.8s-0.5,0-0.8,0.2s-0.7,0.4-1,0.2
		s-0.2-0.6,0-1s0.2-0.7,0-0.8s-0.5,0-0.8,0.2s-0.7,0.4-1,0.2s-0.2-0.6,0-1s0.2-0.7,0-0.8v-0.1l0,0h0.1c0.3,0.2,0.2,0.6,0,1
		c-0.2,0.4-0.2,0.7,0,0.8s0.5,0,0.8-0.2s0.7-0.4,1-0.2s0.2,0.6,0,1s-0.2,0.7,0,0.8s0.5,0,0.8-0.2s0.7-0.4,1-0.2s0.2,0.6,0,1
		s-0.2,0.7,0,0.8s0.5,0,0.8-0.2s0.7-0.4,1-0.2v0.1h-0.1c-0.2-0.1-0.5,0-0.8,0.2C41.3,19.5,41,19.6,40.7,19.6z"/>
	<path class="st1" d="M85.3,64.1C85.3,64.1,85.2,64.1,85.3,64.1c-0.3-0.3-0.1-0.8,0.1-1.2s0.4-0.8,0.2-1s-0.6,0-1,0.1
		s-1,0.4-1.3,0.1s-0.1-0.8,0.1-1.2s0.4-0.8,0.2-1s-0.6,0-1.1,0.1s-1,0.4-1.3,0.1s-0.1-0.8,0.1-1.2s0.4-0.8,0.2-1s-0.6,0-1.1,0.1
		s-0.9,0.4-1.2,0.1V58h0.1c0.2,0.2,0.6,0,1.1-0.1s1-0.4,1.3-0.1s0.1,0.8-0.1,1.2s-0.4,0.8-0.2,1s0.6,0,1-0.1s1-0.4,1.3-0.1
		s0.1,0.8-0.1,1.2s-0.4,0.8-0.2,1.1s0.6,0,1-0.1s1-0.4,1.3-0.1c0.3,0.3,0.1,0.8-0.1,1.2S85.1,63.9,85.3,64.1L85.3,64.1
		C85.3,64.2,85.3,64.2,85.3,64.1C85.3,64.2,85.3,64.1,85.3,64.1z"/>
	<path class="st1" d="M70.9,39.9L70.9,39.9L70.9,39.9L70.9,39.9c0.2-0.4-0.2-0.8-0.5-1.2s-0.7-0.9-0.5-1.3s0.8-0.3,1.3-0.2
		s1,0.2,1.2-0.1S72.3,36.4,72,36s-0.7-0.9-0.5-1.3s0.8-0.3,1.3-0.2s1,0.2,1.2-0.1s-0.2-0.7-0.5-1.1S72.8,32.4,73,32s0.8-0.3,1.3-0.2
		s1,0.2,1.2-0.1h0.1l0,0v0.1c-0.2,0.4-0.8,0.3-1.3,0.2s-1-0.2-1.2,0.2s0.2,0.7,0.5,1.1s0.7,0.9,0.5,1.3s-0.8,0.3-1.3,0.2
		s-1-0.2-1.2,0.2s0.2,0.7,0.5,1.1s0.7,0.9,0.5,1.3s-0.8,0.3-1.3,0.2s-1-0.2-1.2,0.2s0.1,0.7,0.4,1.1s0.7,0.9,0.5,1.3
		C71,40,70.9,40,70.9,39.9z"/>
	<path class="st1" d="M84.8,44.1C84.7,44.1,84.7,44,84.8,44.1c-0.1-0.5,0.4-0.7,0.8-1s0.8-0.4,0.8-0.7s-0.5-0.5-0.9-0.6
		s-1-0.3-1-0.8s0.4-0.7,0.9-0.9s0.8-0.4,0.8-0.7s-0.5-0.5-0.9-0.6s-1-0.3-1-0.7s0.5-0.7,0.9-0.9s0.8-0.4,0.8-0.7s-0.5-0.5-0.9-0.6
		s-1-0.3-1-0.8c0,0,0-0.1,0.1-0.1l0,0c0,0,0.1,0,0.1,0.1c0,0.3,0.5,0.5,0.9,0.6s1,0.3,1,0.8s-0.4,0.7-0.9,0.9s-0.8,0.4-0.8,0.7
		s0.5,0.5,0.9,0.6s1,0.3,1,0.8s-0.5,0.7-0.9,0.9s-0.8,0.4-0.8,0.7s0.5,0.5,0.9,0.6s1,0.3,1,0.8s-0.4,0.7-0.9,0.9
		S84.9,43.8,84.8,44.1C84.8,44,84.8,44.1,84.8,44.1L84.8,44.1z"/>
	<path class="st1" d="M77.9,5.9L77.9,5.9c-0.2-0.3,0-0.6,0.3-0.8s0.4-0.4,0.4-0.6s-0.4-0.2-0.7-0.2S77.1,4.3,77,4s0.1-0.6,0.4-0.8
		s0.4-0.4,0.3-0.6S77.3,2.4,77,2.4s-0.7,0-0.9-0.3s0.1-0.5,0.4-0.8s0.4-0.5,0.3-0.6s-0.4-0.2-0.7-0.2s-0.7,0-0.9-0.3V0.1h0.1
		c0.1,0.2,0.4,0.2,0.7,0.2s0.7,0,0.9,0.3s-0.1,0.5-0.4,0.8S76.1,1.8,76.2,2s0.4,0.2,0.7,0.2s0.7,0,0.9,0.3S77.7,3,77.5,3.3
		s-0.4,0.4-0.3,0.6c0.1,0.2,0.4,0.2,0.7,0.2s0.7,0,0.9,0.3S78.7,5,78.4,5.2S77.9,5.6,78,5.7C78,5.8,78,5.8,77.9,5.9L77.9,5.9z"/>
	<path class="st1" d="M57.7,47.5L57.7,47.5c-0.2,0-0.2-0.2-0.2-0.4s0-0.2-0.1-0.2s-0.1,0.1-0.2,0.2s-0.2,0.3-0.3,0.2
		s-0.2-0.2-0.2-0.4s0-0.2-0.1-0.2s-0.1,0.1-0.2,0.2s-0.2,0.3-0.3,0.2S56,46.8,56,46.7s0-0.2-0.1-0.2v-0.1l0,0l0.1-0.1l0,0
		c0.2,0,0.2,0.2,0.2,0.4s0,0.2,0,0.2s0.1-0.1,0.2-0.2s0.2-0.3,0.3-0.2s0.2,0.2,0.2,0.4s0,0.2,0,0.2s0.1-0.1,0.2-0.2s0.2-0.3,0.3-0.2
		s0.2,0.2,0.2,0.4s0,0.2,0,0.2s0.1-0.1,0.2-0.2s0.2-0.3,0.3-0.2s0.1,0.1,0.1,0.1l-0.1,0.1c0,0-0.1,0.1-0.2,0.1S57.8,47.5,57.7,47.5z
		"/>
	<path class="st1" d="M36.2,50.8L36.2,50.8c-0.3-0.4,0-0.9,0.4-1.4s0.7-0.8,0.5-1.2s-0.7-0.2-1.3-0.1s-1.2,0.2-1.4-0.2
		s0.1-0.9,0.5-1.4s0.7-0.8,0.5-1.2s-0.7-0.2-1.2-0.1S33,45.4,32.7,45s0.1-0.9,0.5-1.4s0.7-0.8,0.5-1.2s-0.7-0.2-1.3-0.1
		s-1.2,0.2-1.4-0.2c0,0,0-0.1,0.1-0.1h0.1c0.2,0.3,0.7,0.2,1.3,0.1c0.6-0.1,1.2-0.2,1.4,0.2s-0.1,0.9-0.5,1.3s-0.7,0.9-0.5,1.2
		s0.7,0.2,1.3,0.1s1.2-0.2,1.4,0.2s-0.1,0.9-0.5,1.3s-0.7,0.9-0.5,1.2s0.7,0.2,1.3,0.1s1.2-0.2,1.4,0.2s-0.1,0.9-0.5,1.4
		s-0.7,0.8-0.5,1.2v0.1C36.3,50.8,36.3,50.8,36.2,50.8L36.2,50.8z"/>
	<path class="st1" d="M79.3,66.2c-0.2,0-0.3-0.1-0.4-0.2c-0.2-0.3,0-0.7,0.3-1.1s0.4-0.7,0.3-0.9s-0.6-0.1-0.9,0s-0.9,0.2-1.1-0.1
		s0-0.7,0.3-1.1s0.4-0.7,0.3-0.9s-0.6-0.1-0.9,0s-0.9,0.2-1.1-0.1s0-0.7,0.3-1.1s0.4-0.7,0.3-0.9v-0.1h0.1l0,0
		c0.2,0.3,0,0.7-0.3,1.1s-0.4,0.7-0.3,0.9s0.6,0.1,0.9,0s0.9-0.2,1.1,0.1s0,0.7-0.3,1.1s-0.4,0.7-0.3,0.9c0.1,0.2,0.6,0.1,0.9,0
		s0.9-0.2,1.1,0.1c0.2,0.3,0,0.7-0.3,1.1s-0.4,0.7-0.3,0.9s0.6,0.1,0.9,0s0.9-0.2,1.1,0.1v0.1h-0.1c-0.2-0.2-0.6-0.1-0.9,0
		C79.8,66.1,79.5,66.1,79.3,66.2z"/>
	<path class="st1" d="M78.3,95.8L78.3,95.8c-0.3,0-0.5-0.5-0.6-0.9s-0.2-0.7-0.4-0.8s-0.4,0.3-0.6,0.6s-0.4,0.8-0.8,0.7
		s-0.4-0.5-0.6-0.9s-0.2-0.7-0.4-0.8s-0.4,0.3-0.6,0.6s-0.4,0.8-0.8,0.7s-0.4-0.5-0.6-0.9s-0.2-0.7-0.4-0.8s-0.4,0.3-0.6,0.6
		s-0.4,0.8-0.8,0.7c0,0-0.1,0-0.1-0.1l0,0c0,0,0-0.1,0.1-0.1l0,0c0.2,0,0.4-0.3,0.6-0.6s0.4-0.8,0.8-0.7s0.4,0.5,0.6,0.9
		s0.2,0.7,0.4,0.8s0.4-0.3,0.6-0.6s0.4-0.8,0.8-0.7s0.4,0.5,0.6,0.9s0.2,0.7,0.4,0.8s0.4-0.3,0.6-0.6s0.4-0.8,0.8-0.7
		s0.5,0.5,0.6,0.9s0.2,0.7,0.4,0.8C78.4,95.6,78.4,95.7,78.3,95.8C78.4,95.8,78.3,95.8,78.3,95.8z"/>
	<path class="st1" d="M23.6,94.7L23.6,94.7c-0.3,0-0.4-0.4-0.4-0.7s-0.1-0.6-0.3-0.6s-0.3,0.2-0.5,0.5s-0.4,0.6-0.6,0.6
		s-0.4-0.4-0.4-0.7s-0.1-0.6-0.3-0.6s-0.3,0.2-0.5,0.5s-0.4,0.6-0.7,0.6s-0.4-0.4-0.4-0.7S19.4,93,19.2,93s-0.3,0.2-0.5,0.5
		s-0.4,0.6-0.6,0.6L18,94c0,0,0-0.1,0.1-0.1l0,0c0.2,0,0.3-0.2,0.5-0.5s0.4-0.6,0.6-0.6s0.4,0.4,0.4,0.7s0.1,0.6,0.3,0.6
		s0.3-0.2,0.5-0.5S20.8,93,21,93s0.4,0.4,0.5,0.7s0.1,0.6,0.3,0.6s0.3-0.2,0.5-0.5s0.4-0.6,0.7-0.6s0.4,0.4,0.4,0.7s0.1,0.6,0.3,0.6
		l0.1,0.1C23.7,94.7,23.6,94.7,23.6,94.7z"/>
	<path class="st1" d="M41.1,45.1C41.1,45.1,41,45.1,41.1,45.1C40.9,45,41,44.9,41,44.8s0.1-0.1,0-0.1s-0.1,0-0.1,0s-0.2,0.1-0.3,0
		s0-0.2,0-0.3s0.1-0.1,0-0.1h-0.1c-0.1,0-0.2,0.1-0.3,0s0-0.2,0-0.3s0.1-0.1,0-0.1H40c-0.1,0-0.3,0.1-0.3,0v-0.1h0.1h0.1
		c0.1,0,0.2-0.1,0.3,0s0,0.2,0,0.3c0,0,0,0.1-0.1,0.1h0.1c0.1,0,0.2-0.1,0.3,0s0,0.2,0,0.3c0,0,0,0.1-0.1,0.1h0.1c0,0,0.2-0.1,0.3,0
		s0,0.2,0,0.3c0,0,0,0.1-0.1,0.1C41.1,45,41.1,45.1,41.1,45.1C41,45.1,41,45.1,41.1,45.1C41,45.1,41.1,45.1,41.1,45.1z"/>
	<path class="st1" d="M62.9,82.5L62.9,82.5C62.9,82.5,62.8,82.4,62.9,82.5C62.9,82.4,62.9,82.4,62.9,82.5c-0.1-0.3,0.2-0.3,0.4-0.4
		s0.3-0.1,0.3-0.1s-0.1-0.2-0.2-0.2S63,81.6,63,81.4s0.3-0.2,0.4-0.3s0.3,0,0.3-0.1s-0.1-0.2-0.2-0.2s-0.3-0.2-0.3-0.4
		s0.3-0.2,0.4-0.3S63.9,80,64,80s-0.1-0.2-0.2-0.2s-0.3-0.2-0.3-0.4l0.1-0.1c0,0,0.1,0,0.1,0.1l0,0c0,0.1,0.1,0.2,0.2,0.2
		s0.3,0.2,0.3,0.4s-0.2,0.2-0.4,0.3s-0.3,0-0.3,0.1s0.1,0.2,0.2,0.2S64,80.8,64,81s-0.2,0.2-0.4,0.3s-0.3,0.1-0.3,0.1
		s0.1,0.2,0.2,0.2s0.3,0.2,0.3,0.4s-0.2,0.2-0.4,0.3S63,82.3,62.9,82.5C63,82.5,63,82.5,62.9,82.5L62.9,82.5z"/>
	<path class="st1" d="M60.1,76.5L60.1,76.5C60,76.5,60,76.4,60.1,76.5c-0.1-0.1-0.2-0.2-0.2-0.2s-0.2-0.1-0.2-0.3s0.2-0.2,0.3-0.2
		s0.2,0,0.2-0.1s-0.2,0-0.2-0.1s-0.2-0.1-0.2-0.3s0.2-0.2,0.3-0.2s0.2,0,0.2-0.1s-0.2,0-0.3,0s-0.2-0.1-0.2-0.3s0.2-0.2,0.3-0.2
		s0.2,0,0.2-0.1c0,0,0-0.1,0.1-0.1l0,0l0.1,0.1c0,0.1-0.2,0.2-0.3,0.2s-0.2,0-0.2,0.1s0.1,0.1,0.1,0.1s0.2,0.1,0.2,0.3
		s-0.2,0.2-0.3,0.2s-0.1,0-0.2,0l0.1,0.1c0,0,0.2,0.1,0.2,0.3s-0.2,0.2-0.3,0.2s-0.2,0-0.2,0l0.1,0.1c0,0,0.2,0.1,0.2,0.3
		C60.2,76.3,60.2,76.4,60.1,76.5C60.2,76.5,60.1,76.5,60.1,76.5z"/>
	<path class="st1" d="M27.6,77.1c-0.2,0-0.4-0.2-0.6-0.4s-0.4-0.4-0.6-0.3c0,0-0.1,0-0.1-0.1v-0.1c0.3-0.1,0.5,0.1,0.8,0.3
		s0.4,0.4,0.6,0.3s0.1-0.4,0.1-0.6s0-0.7,0.2-0.8s0.5,0.1,0.8,0.3s0.4,0.4,0.5,0.3s0.1-0.3,0.1-0.6s0-0.7,0.2-0.8s0.5,0.1,0.8,0.3
		s0.4,0.4,0.6,0.3s0.1-0.3,0.1-0.6s0-0.7,0.2-0.8h0.1v0.1c-0.2,0.1-0.1,0.3-0.1,0.6s0,0.7-0.2,0.8s-0.5-0.1-0.8-0.3
		s-0.4-0.4-0.6-0.3s-0.1,0.4-0.1,0.6s0,0.7-0.2,0.8s-0.5-0.1-0.8-0.3s-0.4-0.4-0.6-0.3s0,0.4,0,0.7s0,0.7-0.2,0.8
		C27.7,77,27.7,77.1,27.6,77.1z"/>
	<path class="st1" d="M7.6,78.5L7.6,78.5C7.5,78.5,7.5,78.5,7.6,78.5C7.5,78.4,7.5,78.4,7.6,78.5c-0.1-0.2-0.2-0.3-0.3-0.3
		S6.9,78,6.9,77.8s0.2-0.2,0.4-0.3s0.3-0.1,0.3-0.1s-0.1-0.2-0.3-0.2S6.9,77,7,76.8s0.2-0.2,0.4-0.3s0.3-0.1,0.3-0.1
		s-0.1-0.2-0.3-0.2S7,76,7.1,75.8s0.2-0.2,0.4-0.3S8,75.3,8,75.3s0-0.1,0.1-0.1l0,0l0.1,0.1c0,0.2-0.3,0.2-0.4,0.3s-0.3,0.1-0.3,0.1
		s0.1,0.2,0.2,0.2S8,76.2,8,76.3s-0.3,0.2-0.4,0.3s-0.3,0.1-0.3,0.1s0.1,0.2,0.2,0.2s0.4,0.2,0.3,0.4s-0.3,0.2-0.4,0.3
		s-0.3,0.1-0.3,0.1S7.2,78,7.3,78S7.7,78.2,7.6,78.5C7.7,78.5,7.6,78.5,7.6,78.5z"/>
	<path class="st1" d="M56,94.9C55.9,94.9,55.9,94.8,56,94.9c-0.1-0.1-0.1-0.2,0-0.2c0.2,0,0.3-0.3,0.4-0.7s0.2-0.8,0.5-0.8
		s0.5,0.3,0.7,0.7s0.3,0.6,0.5,0.6s0.3-0.3,0.4-0.7s0.2-0.7,0.5-0.8s0.5,0.3,0.7,0.7s0.3,0.6,0.5,0.6s0.3-0.3,0.4-0.7
		s0.2-0.8,0.5-0.8s0.5,0.3,0.7,0.7s0.3,0.6,0.5,0.6c0,0,0.1,0,0.1,0.1l0,0c0,0,0,0.1-0.1,0.1c-0.3,0-0.5-0.3-0.7-0.7
		S61.3,93,61.1,93s-0.3,0.3-0.4,0.7s-0.2,0.7-0.5,0.8s-0.5-0.3-0.7-0.7s-0.3-0.6-0.5-0.6s-0.3,0.3-0.4,0.7s-0.2,0.8-0.5,0.8
		s-0.5-0.3-0.7-0.7s-0.3-0.6-0.5-0.6s-0.3,0.3-0.4,0.7S56.3,94.8,56,94.9L56,94.9z"/>
	<path class="st1" d="M2.8,27.7C2.8,27.7,2.7,27.7,2.8,27.7c-0.1-0.1-0.2-0.1-0.3-0.1s-0.3-0.1-0.3-0.2s0.1-0.2,0.2-0.3
		S2.6,27,2.6,27s-0.1,0-0.2-0.1s-0.3,0-0.3-0.2s0.1-0.2,0.2-0.3s0.2-0.1,0.1-0.1s-0.1,0-0.2-0.1S2,26.2,2,26s0.1-0.2,0.2-0.3
		s0.1-0.1,0.1-0.1s0-0.1,0.1-0.1l0,0c0,0,0.1,0,0.1,0.1s-0.1,0.2-0.2,0.3S2.1,26,2.1,26s0.1,0,0.2,0s0.3,0.1,0.3,0.2
		s-0.1,0.2-0.2,0.3s-0.2,0.1-0.1,0.1s0.1,0,0.2,0.1s0.3,0,0.3,0.2s-0.1,0.2-0.2,0.3s-0.2,0.1-0.1,0.1s0.1,0,0.2,0.1s0.3,0,0.3,0.2
		C2.9,27.6,2.9,27.6,2.8,27.7C2.8,27.6,2.8,27.6,2.8,27.7L2.8,27.7z"/>
	<path class="st1" d="M43.8,95.8L43.8,95.8c-0.1-0.1-0.2-0.2-0.3-0.2s-0.3-0.1-0.4-0.3s0.2-0.3,0.3-0.3s0.2-0.1,0.2-0.2
		s-0.1-0.1-0.2-0.1s-0.3-0.1-0.4-0.3s0.2-0.3,0.3-0.3s0.2-0.1,0.2-0.2s-0.1-0.1-0.3-0.1S43,93.7,43,93.5s0.2-0.3,0.3-0.3
		s0.2-0.1,0.2-0.2c0,0,0-0.1,0.1-0.1c0,0,0.1,0,0.1,0.1c0,0.2-0.2,0.3-0.3,0.3s-0.2,0.1-0.2,0.2s0.1,0.1,0.2,0.1s0.4,0.1,0.4,0.3
		s-0.2,0.3-0.3,0.3s-0.2,0.1-0.2,0.2s0.1,0.1,0.2,0.1s0.3,0.1,0.4,0.3s-0.2,0.3-0.3,0.3s-0.2,0.1-0.2,0.2s0.1,0.1,0.3,0.1
		s0.3,0.1,0.4,0.3C43.9,95.7,43.9,95.8,43.8,95.8L43.8,95.8z"/>
	<path class="st1" d="M2.1,59.5c-0.3,0-0.6-0.1-0.8-0.2c-0.4-0.1-0.9-0.3-1.1,0H0.1l0,0v-0.1c0.3-0.3,0.8-0.2,1.3,0s0.9,0.3,1.1,0
		s0-0.7-0.3-1.1s-0.5-0.9-0.3-1.3s0.8-0.2,1.3,0s0.9,0.3,1.1,0s0-0.7-0.3-1.1s-0.5-0.9-0.3-1.3s0.8-0.2,1.3,0s0.9,0.3,1.1,0
		s0-0.7-0.3-1.1s-0.5-1-0.3-1.3h0.1v0.1l0,0c-0.2,0.3,0,0.7,0.3,1.1s0.5,0.9,0.3,1.3s-0.8,0.2-1.3,0s-0.9-0.3-1.1,0s0,0.7,0.3,1.1
		s0.5,0.9,0.3,1.3s-0.8,0.2-1.3,0S2.3,56.7,2,57s0,0.7,0.3,1.1s0.5,0.9,0.3,1.3C2.4,59.5,2.3,59.5,2.1,59.5z"/>
	<path class="st1" d="M95,32.3c-0.1,0-0.2,0-0.2-0.1c-0.4-0.2-0.3-0.8-0.3-1.3s0.1-1-0.2-1.2s-0.7,0.2-1.1,0.5s-0.9,0.7-1.3,0.5
		s-0.3-0.8-0.3-1.3s0.1-1-0.2-1.2s-0.7,0.2-1.1,0.5s-0.9,0.8-1.3,0.5s-0.3-0.8-0.3-1.3s0.1-1-0.2-1.2v-0.1h0.1
		c0.4,0.2,0.3,0.8,0.3,1.3s-0.1,1,0.2,1.2s0.7-0.2,1.1-0.5s0.9-0.7,1.3-0.5s0.3,0.8,0.3,1.3s-0.1,1,0.2,1.2s0.7-0.2,1.1-0.5
		s0.9-0.7,1.3-0.5s0.3,0.8,0.3,1.4S94.6,32,95,32.3c0.2,0.1,0.6-0.3,1-0.6s0.9-0.7,1.3-0.5v0.1h-0.1c-0.3-0.2-0.7,0.2-1.1,0.5
		C95.8,32,95.4,32.2,95,32.3z"/>
	<path class="st1" d="M70.8,71.6C70.7,71.6,70.7,71.6,70.8,71.6C70.7,71.6,70.7,71.5,70.8,71.6c-0.1-0.1-0.1-0.2-0.2-0.2
		s-0.1-0.2,0-0.3s0.2,0,0.3,0H71V71c0,0-0.1-0.2,0-0.3s0.2,0,0.3,0h0.1v-0.1c0,0-0.1-0.2,0-0.3s0.2,0,0.3,0h0.1h0.1v0.1
		c-0.1,0.1-0.2,0-0.3,0h-0.1v0.1c0,0,0.1,0.2,0,0.3s-0.2,0-0.3,0h-0.1v0.1c0,0,0.1,0.2,0,0.3s-0.2,0-0.3,0h-0.1c0,0,0,0.1,0.1,0.1
		S70.9,71.5,70.8,71.6L70.8,71.6z"/>
	<path class="st1" d="M46.2,42L46.2,42c-0.4-0.3-0.2-0.8-0.1-1.3s0.3-0.9,0-1.1s-0.7,0-1.1,0.3s-1,0.5-1.3,0.2s-0.2-0.8,0-1.3
		s0.3-0.9,0-1.2s-0.7,0-1.1,0.3s-1,0.5-1.3,0.2s-0.2-0.8,0-1.3s0.3-0.9,0-1.1s-0.7,0-1.1,0.3s-1,0.5-1.3,0.2l-0.1-0.1l0.1-0.1l0,0
		c0.3,0.2,0.7,0,1.1-0.3s1-0.5,1.3-0.2s0.2,0.8,0,1.3s-0.3,0.9,0,1.2s0.7,0,1.1-0.3s1-0.5,1.3-0.2s0.2,0.8,0,1.3s-0.3,0.9,0,1.1
		s0.7,0,1.1-0.3s1-0.5,1.3-0.2s0.2,0.8,0,1.3s-0.3,0.9-0.1,1.2C46.3,41.9,46.3,41.9,46.2,42C46.3,42,46.3,42,46.2,42L46.2,42z"/>
	<path class="st1" d="M95.7,40.4L95.7,40.4C95.7,40.4,95.6,40.3,95.7,40.4c-0.1-0.2,0.1-0.3,0.2-0.3S96,40,96,40s-0.1-0.1-0.2-0.1
		s-0.2-0.1-0.2-0.3s0.2-0.2,0.3-0.2s0.2,0,0.2-0.1S96,39.2,96,39.2s-0.3-0.1-0.2-0.3s0.2-0.2,0.3-0.2c0.1,0,0.1,0,0.2-0.1
		c0,0-0.1-0.1-0.2-0.1s-0.3-0.1-0.2-0.3c0,0,0-0.1,0.1-0.1s0.1,0,0.1,0.1c0,0,0,0,0,0.1c0,0,0.1,0.1,0.2,0.1s0.2,0.1,0.2,0.3
		s-0.2,0.2-0.3,0.2S96,38.9,96,39s0.1,0.1,0.1,0.1s0.3,0.1,0.2,0.3s-0.2,0.2-0.3,0.2s-0.2,0-0.2,0.1s0.1,0.1,0.2,0.1
		s0.3,0.1,0.2,0.3s-0.2,0.2-0.3,0.2S95.8,40.3,95.7,40.4C95.8,40.3,95.7,40.4,95.7,40.4z"/>
	<path class="st1" d="M71.5,90.2L71.5,90.2c-0.1,0-0.2-0.1-0.2-0.3v-0.1h-0.1v0.1c0,0.1-0.1,0.2-0.2,0.2l0,0c-0.1,0-0.2-0.1-0.2-0.3
		s0-0.1-0.1-0.1l-0.1,0.1c0,0.1-0.1,0.2-0.2,0.2l0,0c-0.1,0-0.2-0.1-0.2-0.3s0-0.1-0.1-0.1c0,0-0.1,0-0.1-0.1c0,0,0-0.1,0.1-0.1l0,0
		c0.1,0,0.2,0.1,0.2,0.3v0.1h0.1v-0.1c0.1-0.1,0.1-0.2,0.2-0.2s0.2,0.1,0.2,0.3s0,0.1,0.1,0.1l0.1-0.1c0-0.1,0.1-0.3,0.2-0.2
		s0.2,0.1,0.2,0.3s0,0.1,0.1,0.1s0-0.1,0.1-0.1s0.1-0.3,0.2-0.3l0,0c0,0,0.1,0,0.1,0.1s0,0.1-0.1,0.1l0,0l-0.1,0.1
		C71.7,89.9,71.7,90.2,71.5,90.2z"/>
	<path class="st1" d="M37.5,39.8L37.5,39.8c-0.2,0-0.2-0.2-0.2-0.4s0-0.2-0.1-0.3s-0.1,0.1-0.2,0.2s-0.2,0.3-0.4,0.2
		s-0.2-0.2-0.2-0.4s0-0.2-0.1-0.3s0,0.2-0.1,0.2s-0.2,0.3-0.4,0.2s-0.2-0.2-0.2-0.4s0-0.2-0.1-0.3s-0.1,0.1-0.2,0.2S35.1,39.1,35,39
		l-0.1-0.1l0,0H35l0,0c0,0,0.1-0.1,0.2-0.2s0.2-0.3,0.4-0.2s0.2,0.2,0.2,0.4s0,0.2,0.1,0.2s0.1,0,0.1-0.1s0.2-0.3,0.4-0.2
		s0.2,0.2,0.2,0.4s0,0.2,0.1,0.2s0.1-0.1,0.2-0.2s0.2-0.3,0.4-0.2s0.2,0.2,0.2,0.4s0,0.2,0.1,0.3l0.1,0.1
		C37.6,39.8,37.6,39.8,37.5,39.8L37.5,39.8z"/>
	<path class="st1" d="M89.8,51.2c-0.1,0-0.3,0-0.4-0.1c-0.2,0-0.5-0.1-0.6,0h-0.1V51c0.2-0.2,0.4-0.1,0.7,0s0.5,0.1,0.5,0
		s0-0.3-0.2-0.5s-0.3-0.5-0.2-0.7s0.4-0.1,0.7-0.1s0.5,0.1,0.5,0s0-0.3-0.2-0.5s-0.3-0.5-0.2-0.7s0.4-0.1,0.7,0s0.5,0.1,0.5,0
		s0-0.3-0.2-0.5s-0.3-0.5-0.2-0.7h0.1l0,0v0.1l0,0c-0.1,0.1,0,0.3,0.2,0.5s0.3,0.5,0.2,0.7s-0.4,0.1-0.7,0s-0.5-0.1-0.5,0
		s0,0.3,0.2,0.5s0.3,0.5,0.2,0.7s-0.4,0.1-0.7,0.1s-0.5-0.1-0.5,0s0,0.3,0.2,0.5s0.3,0.5,0.2,0.7C90,51.2,89.9,51.3,89.8,51.2z"/>
	<path class="st1" d="M54.3,60.8c-0.2,0-0.3-0.1-0.5-0.3c-0.2-0.1-0.3-0.3-0.4-0.2h-0.1l0,0v-0.1c0.2-0.1,0.4,0.1,0.6,0.2
		s0.3,0.3,0.4,0.2s0.1-0.3,0-0.5s-0.1-0.5,0.1-0.6s0.4,0.1,0.6,0.2s0.3,0.3,0.4,0.2s0.1-0.3,0-0.5s-0.1-0.5,0.1-0.6s0.4,0.1,0.6,0.2
		s0.3,0.3,0.4,0.2s0.1-0.3,0-0.5s-0.1-0.5,0.1-0.6h0.1v0.1l0,0c-0.1,0.1-0.1,0.3,0,0.5s0.1,0.5-0.1,0.6s-0.4-0.1-0.6-0.2
		s-0.3-0.3-0.4-0.2s-0.1,0.3,0,0.5s0.1,0.5-0.1,0.6s-0.4-0.1-0.6-0.2s-0.3-0.3-0.4-0.2s-0.1,0.3,0,0.5S54.6,60.6,54.3,60.8
		C54.4,60.8,54.3,60.8,54.3,60.8z"/>
	<path class="st1" d="M94.6,55L94.6,55L94.6,55c-0.1-0.2,0.1-0.3,0.2-0.3s0.2,0,0.2,0s-0.1-0.1-0.1-0.2s-0.2-0.2-0.2-0.3
		S94.9,54,95,54s0.2,0,0.2,0s-0.1-0.1-0.1-0.2s-0.2-0.2-0.2-0.3s0.2-0.2,0.3-0.2s0.2,0,0.2,0l-0.1-0.1c0,0-0.2-0.2-0.2-0.3h0.1
		l0.1,0.1l0,0c0,0,0.1,0.1,0.1,0.2s0.2,0.2,0.2,0.3s-0.2,0.2-0.3,0.2s-0.2,0-0.2,0l0.1,0.1c0,0,0.2,0.2,0.2,0.3s-0.2,0.2-0.3,0.2
		s-0.2,0-0.2,0l0.1,0.1c0,0,0.2,0.2,0.2,0.3S95,55,94.9,55s-0.2,0-0.2,0C94.7,55,94.6,55,94.6,55z"/>
	<path class="st1" d="M54.4,84L54.4,84c-0.2-0.1-0.2-0.3-0.2-0.5s0-0.3-0.1-0.4s-0.2,0.1-0.3,0.2s-0.3,0.3-0.5,0.3S53,83.3,53,83
		s0-0.3-0.1-0.4s-0.2,0.1-0.3,0.2s-0.3,0.3-0.5,0.3s-0.2-0.3-0.2-0.5s0-0.3-0.1-0.4s-0.2,0.1-0.3,0.2s-0.3,0.3-0.5,0.3v-0.1h0.1
		c0.1,0,0.2-0.1,0.3-0.2s0.3-0.3,0.5-0.3s0.2,0.3,0.2,0.5s0,0.3,0.1,0.4s0.2-0.1,0.3-0.2s0.3-0.3,0.5-0.3s0.2,0.3,0.2,0.5
		s0,0.3,0.1,0.4s0.2-0.1,0.3-0.2s0.3-0.3,0.5-0.3s0.2,0.3,0.2,0.5s0,0.3,0.1,0.4L54.4,84C54.5,84,54.4,84,54.4,84L54.4,84z"/>
	<path class="st1" d="M21.4,67.2c-0.2,0-0.4-0.2-0.5-0.4s-0.2-0.4-0.4-0.4c0,0-0.1,0-0.1-0.1c0,0,0-0.1,0.1-0.1l0,0
		c0.2,0,0.4,0.2,0.5,0.4s0.2,0.4,0.4,0.3s0.2-0.2,0.2-0.5S21.7,66,22,66s0.4,0.2,0.5,0.4s0.2,0.4,0.4,0.4s0.2-0.3,0.2-0.5
		s0.1-0.6,0.4-0.6s0.4,0.2,0.5,0.4s0.2,0.4,0.4,0.3s0.2-0.2,0.2-0.5s0.1-0.6,0.4-0.6c0,0,0.1,0,0.1,0.1c0,0,0,0.1-0.1,0.1
		s-0.2,0.3-0.2,0.5s-0.1,0.6-0.4,0.6s-0.4-0.2-0.5-0.4s-0.2-0.4-0.4-0.3s-0.2,0.2-0.2,0.5S23.2,67,22.9,67s-0.4-0.2-0.5-0.4
		s-0.2-0.4-0.4-0.4s-0.2,0.3-0.2,0.5S21.7,67.2,21.4,67.2L21.4,67.2z"/>
	<path class="st1" d="M95.7,95.8L95.7,95.8c-0.4,0-0.7-0.6-0.8-1.1s-0.3-1-0.7-1s-0.5,0.5-0.7,0.9s-0.4,1-0.9,1l0,0
		c-0.4,0-0.7-0.6-0.8-1.1s-0.3-0.9-0.7-1s-0.5,0.5-0.7,0.9s-0.4,1-0.9,1s-0.7-0.6-0.8-1.1s-0.3-0.9-0.7-1l0,0
		c-0.3,0-0.5,0.5-0.7,0.9s-0.4,1-0.9,1c0,0-0.1,0-0.1-0.1l0,0c0,0,0-0.1,0.1-0.1c0.3,0,0.5-0.5,0.7-0.9s0.4-1,0.9-1s0.7,0.6,0.8,1.1
		s0.3,1,0.7,1l0,0c0.3,0,0.5-0.5,0.7-0.9s0.4-1,0.9-1l0,0c0.5,0,0.7,0.6,0.8,1.1s0.3,0.9,0.7,1s0.5-0.5,0.7-0.9s0.5-1,0.9-1
		s0.6,0.6,0.8,1.1s0.3,0.9,0.7,1C95.8,95.6,95.8,95.6,95.7,95.8C95.8,95.7,95.8,95.8,95.7,95.8L95.7,95.8z"/>
	<path class="st1" d="M65.2,50.3C65.1,50.3,65.1,50.3,65.2,50.3C65,50.1,64.7,50,64.4,50s-0.8-0.1-0.9-0.4s0.2-0.6,0.5-0.8
		c0.3-0.2,0.5-0.4,0.5-0.6s-0.4-0.2-0.7-0.3s-0.8-0.1-0.9-0.4s0.2-0.6,0.5-0.8s0.5-0.4,0.5-0.6s-0.4-0.2-0.7-0.3s-0.8-0.1-0.9-0.4
		s0.2-0.6,0.5-0.8s0.5-0.4,0.5-0.6c0,0,0-0.1,0.1-0.1c0,0,0.1,0,0.1,0.1c0.1,0.3-0.2,0.6-0.5,0.8s-0.5,0.4-0.5,0.6s0.4,0.2,0.7,0.3
		c0.3,0,0.8,0.1,0.9,0.4s-0.2,0.6-0.5,0.8S63,47.2,63,47.4s0.4,0.2,0.7,0.3s0.8,0.1,0.9,0.4s-0.2,0.6-0.5,0.8s-0.5,0.4-0.5,0.6
		s0.4,0.2,0.7,0.3S65.1,49.9,65.2,50.3C65.3,50.3,65.2,50.3,65.2,50.3L65.2,50.3z"/>
	<path class="st1" d="M52,66.7L52,66.7c-0.3-0.2-0.1-0.6,0-0.9s0.3-0.6,0.2-0.7s-0.5,0-0.8,0.1s-0.7,0.3-0.9,0s0-0.6,0.1-0.9
		s0.3-0.6,0.1-0.7s-0.4,0-0.7,0.1s-0.7,0.3-0.9,0s0-0.6,0.1-0.9s0.3-0.6,0.1-0.7s-0.5,0-0.8,0.1s-0.7,0.3-0.9,0v-0.1h0.1l0,0
		c0.1,0.2,0.5,0,0.8-0.1s0.7-0.3,0.9,0s0,0.6-0.1,0.9s-0.3,0.6-0.1,0.7s0.5,0,0.7-0.1s0.7-0.3,0.9,0s0,0.6-0.1,0.9s-0.3,0.6-0.1,0.7
		s0.5,0,0.8-0.1s0.7-0.3,0.9,0s0,0.6-0.1,0.9s-0.3,0.6-0.1,0.7C52.1,66.6,52.1,66.7,52,66.7C52.1,66.7,52.1,66.7,52,66.7L52,66.7z"
		/>
	<path class="st1" d="M32.4,84.7L32.4,84.7c-0.3-0.2-0.2-0.4,0-0.7s0.2-0.5,0-0.6s-0.3,0-0.5,0.1s-0.5,0.3-0.7,0.1s-0.1-0.4,0-0.7
		c0.1-0.3,0.2-0.5,0-0.6s-0.3,0-0.5,0.1s-0.5,0.3-0.7,0.1s-0.1-0.4,0-0.7s0.1-0.5,0-0.6s-0.3,0-0.5,0.1s-0.5,0.3-0.7,0.1l-0.1-0.1
		l0.1-0.1l0,0c0.1,0.1,0.3,0,0.5-0.1s0.5-0.3,0.7-0.1s0.1,0.4,0,0.7s-0.1,0.5,0,0.6s0.3,0,0.5-0.1s0.5-0.3,0.7-0.1
		c0.2,0.2,0.1,0.4,0,0.7s-0.2,0.5,0,0.6s0.3,0,0.5-0.1s0.5-0.3,0.7-0.1s0.1,0.4,0,0.7s-0.2,0.5,0,0.6C32.5,84.6,32.5,84.6,32.4,84.7
		L32.4,84.7L32.4,84.7z"/>
	<path class="st1" d="M57.6,30c-0.1,0-0.1,0-0.2,0c-0.3-0.2-0.2-0.5-0.2-0.9s0.1-0.6-0.1-0.7s-0.4,0.1-0.6,0.3S56,29.1,55.7,29
		s-0.2-0.5-0.2-0.9s0.1-0.6-0.1-0.7s-0.4,0.1-0.6,0.3S54.3,28.1,54,28s-0.2-0.5-0.2-0.9s0.1-0.6-0.1-0.7v-0.1l0,0h0.1
		c0.3,0.2,0.2,0.5,0.2,0.9s-0.1,0.6,0.1,0.7s0.4-0.1,0.6-0.3s0.6-0.4,0.8-0.3s0.2,0.5,0.2,0.9s-0.1,0.6,0.1,0.7s0.4-0.1,0.6-0.3
		s0.6-0.5,0.8-0.3s0.2,0.5,0.2,0.9s-0.1,0.6,0.1,0.7s0.4-0.1,0.6-0.3s0.6-0.4,0.8-0.3v0.1h-0.1l0,0c-0.2-0.1-0.4,0.1-0.6,0.3
		C58.1,29.9,57.8,30,57.6,30z"/>
	<path class="st1" d="M46.5,28.2C46.5,28.3,46.5,28.3,46.5,28.2c-0.3-0.3-0.1-0.6,0.2-0.9s0.4-0.5,0.3-0.7s-0.5-0.1-0.8,0
		s-0.8,0.2-1-0.1s0-0.6,0.3-0.9s0.4-0.5,0.3-0.7s-0.5-0.1-0.8,0s-0.8,0.1-1-0.1s0-0.6,0.3-0.9s0.4-0.5,0.3-0.7s-0.4-0.1-0.8,0
		s-0.8,0.2-0.9-0.1V23l0,0H43c0.1,0.2,0.5,0.1,0.8,0s0.8-0.2,1,0.1s0,0.6-0.3,0.9s-0.4,0.5-0.3,0.7s0.5,0.1,0.8,0s0.8-0.2,1,0.1
		s0,0.6-0.3,0.9s-0.4,0.5-0.3,0.7s0.5,0.1,0.8,0s0.8-0.2,1,0.1s0,0.6-0.3,0.9s-0.4,0.5-0.3,0.7L46.5,28.2L46.5,28.2L46.5,28.2z"/>
	<path class="st1" d="M31.4,35.2C31.3,35.2,31.3,35.2,31.4,35.2c-0.2-0.3-0.7-0.3-1.2-0.3s-1.1,0-1.3-0.4s0.2-0.8,0.6-1.2
		s0.7-0.7,0.6-1S29.4,32,28.9,32s-1.1,0-1.3-0.4s0.2-0.8,0.6-1.2s0.7-0.7,0.6-1s-0.6-0.3-1.1-0.3s-1.1,0-1.3-0.4s0.2-0.8,0.6-1.2
		s0.7-0.7,0.6-1v-0.1h0.1c0,0,0,0,0,0.1c0.2,0.4-0.2,0.8-0.6,1.2s-0.7,0.7-0.6,1s0.6,0.3,1.1,0.3s1.1,0,1.3,0.4s-0.2,0.8-0.6,1.2
		s-0.7,0.7-0.6,1s0.6,0.3,1.1,0.3s1.1,0,1.3,0.4c0.2,0.4-0.1,0.7-0.5,1.1s-0.7,0.7-0.6,1s0.6,0.3,1.1,0.3S31.3,34.7,31.4,35.2
		C31.5,35.1,31.5,35.2,31.4,35.2L31.4,35.2z"/>
	<path class="st1" d="M41.6,65.5L41.6,65.5C41.6,65.5,41.5,65.4,41.6,65.5c0-0.6,0.6-0.7,1.2-0.9s1.1-0.3,1.1-0.7S43.4,63.3,43,63
		s-1.1-0.6-1-1.1s0.7-0.6,1.2-0.8s1.1-0.3,1.1-0.7s-0.4-0.6-0.9-0.9s-1.1-0.6-1-1.1s0.7-0.6,1.2-0.8s1.1-0.3,1.1-0.7
		s-0.5-0.6-0.9-0.9s-1.1-0.6-1-1.1l0.1-0.1l0.1,0.1c0,0.4,0.4,0.6,0.9,0.9s1.1,0.6,1,1.1s-0.7,0.6-1.2,0.8s-1.1,0.3-1.1,0.7
		s0.5,0.6,0.9,0.9s1.1,0.6,1,1.1s-0.7,0.7-1.2,0.8s-1.1,0.3-1.1,0.7s0.5,0.6,0.9,0.9s1.1,0.6,1,1.1s-0.7,0.7-1.2,0.8
		s-1.1,0.3-1.1,0.7C41.7,65.4,41.7,65.5,41.6,65.5L41.6,65.5z"/>
	<path class="st1" d="M27,7C26.9,7,26.9,7,27,7c-0.1-0.2-0.5-0.3-0.9-0.4s-0.8-0.2-0.9-0.5s0.3-0.6,0.6-0.8s0.6-0.4,0.6-0.6
		S26,4.4,25.6,4.3s-0.8-0.2-0.9-0.5S25,3.3,25.4,3S26,2.6,26,2.4S25.6,2.1,25.2,2s-0.8-0.2-0.9-0.5s0.3-0.6,0.6-0.8s0.6-0.4,0.6-0.6
		L25.6,0c0,0,0,0,0.1,0.1c0.1,0.3-0.3,0.6-0.6,0.8s-0.6,0.4-0.6,0.6s0.4,0.3,0.8,0.4s0.8,0.2,0.9,0.5S25.8,3,25.5,3.2
		s-0.6,0.4-0.6,0.6c0,0.2,0.4,0.3,0.8,0.4s0.8,0.2,0.9,0.5S26.3,5.3,26,5.5s-0.6,0.4-0.6,0.6s0.4,0.3,0.8,0.4S27,6.6,27,7
		C27,7,27,7.1,27,7L27,7z"/>
	<path class="st1" d="M88,60.7L88,60.7C88,60.7,88,60.6,88,60.7C88,60.6,88,60.6,88,60.7c-0.1-0.4,0.3-0.5,0.7-0.6s0.6-0.2,0.7-0.4
		s-0.3-0.4-0.5-0.5s-0.7-0.4-0.6-0.7s0.4-0.4,0.8-0.5s0.6-0.2,0.7-0.4s-0.3-0.4-0.6-0.5s-0.7-0.4-0.6-0.7s0.4-0.4,0.8-0.5
		s0.6-0.2,0.7-0.4s-0.3-0.4-0.5-0.5s-0.7-0.4-0.6-0.7c0,0,0-0.1,0.1-0.1l0,0c0,0,0.1,0,0.1,0.1c0,0.2,0.3,0.4,0.5,0.5
		s0.7,0.4,0.6,0.7s-0.4,0.4-0.8,0.5s-0.6,0.2-0.7,0.4s0.3,0.4,0.6,0.5s0.7,0.4,0.6,0.7s-0.4,0.4-0.8,0.5s-0.6,0.2-0.7,0.4
		s0.3,0.4,0.5,0.5s0.7,0.4,0.6,0.7s-0.4,0.4-0.8,0.5S88.2,60.4,88,60.7C88.1,60.6,88.1,60.7,88,60.7L88,60.7z"/>
	<path class="st1" d="M84,71.3L84,71.3C83.9,71.3,83.9,71.2,84,71.3C83.9,71.2,83.9,71.2,84,71.3c-0.1-0.2-0.2-0.3-0.3-0.4
		s-0.4-0.3-0.3-0.4s0.3-0.2,0.5-0.3s0.3,0,0.3-0.1s-0.1-0.2-0.3-0.3s-0.4-0.3-0.3-0.4s0.3-0.2,0.5-0.3s0.3-0.1,0.3-0.1
		s-0.1-0.2-0.3-0.3s-0.4-0.3-0.3-0.4s0.3-0.2,0.5-0.3s0.3,0,0.3-0.1l0.1-0.1l0,0l0.1,0.1c0,0.2-0.3,0.2-0.5,0.3s-0.3,0-0.3,0.1
		s0.1,0.2,0.3,0.3s0.4,0.3,0.3,0.4s-0.3,0.2-0.5,0.3s-0.3,0.1-0.3,0.1s0.1,0.2,0.3,0.3s0.4,0.3,0.3,0.4s-0.3,0.2-0.5,0.3
		s-0.3,0.1-0.3,0.1s0.1,0.2,0.3,0.3S84.1,71,84,71.3C84.1,71.2,84,71.3,84,71.3z"/>
	<path class="st1" d="M50.8,36.8C50.8,36.8,50.7,36.7,50.8,36.8c-0.1-0.3-0.4-0.3-0.7-0.4s-0.7-0.1-0.8-0.4s0.3-0.5,0.5-0.7
		s0.5-0.3,0.5-0.5s-0.3-0.2-0.6-0.3S49,34.3,49,34s0.3-0.5,0.5-0.7S50,33,50,32.8s-0.3-0.2-0.6-0.3s-0.7-0.1-0.8-0.4
		s0.3-0.5,0.5-0.7s0.5-0.3,0.5-0.5c0,0,0-0.1,0.1-0.1l0,0c0,0,0.1,0,0.1,0.1l0,0c0.1,0.3-0.3,0.5-0.5,0.7s-0.5,0.3-0.5,0.5
		s0.3,0.2,0.6,0.3s0.7,0.1,0.8,0.4s-0.3,0.5-0.5,0.7s-0.5,0.3-0.5,0.5s0.3,0.2,0.6,0.3s0.7,0.1,0.8,0.4s-0.3,0.5-0.5,0.7
		s-0.5,0.3-0.5,0.5s0.3,0.2,0.6,0.3s0.7,0.1,0.8,0.4C50.9,36.7,50.9,36.7,50.8,36.8L50.8,36.8z"/>
	<path class="st1" d="M15.3,66L15.3,66L15.3,66c0.1-0.3,0.4-0.2,0.7-0.2c0.3,0.1,0.4,0.1,0.5,0s-0.1-0.3-0.2-0.4S16,65,16.1,64.7
		c0.1-0.2,0.4-0.1,0.7-0.1s0.4,0.1,0.5,0s-0.1-0.3-0.2-0.5s-0.3-0.4-0.2-0.6s0.4-0.1,0.7-0.1s0.4,0.1,0.5,0S18,63.1,17.9,63
		s-0.3-0.4-0.2-0.7h0.1l0,0v0.1c-0.1,0.1,0,0.3,0.2,0.4s0.3,0.4,0.2,0.7s-0.4,0.1-0.7,0.1s-0.4-0.1-0.5,0s0,0.3,0.2,0.5
		c0.2,0.2,0.3,0.4,0.2,0.6s-0.4,0.1-0.7,0.1s-0.4-0.1-0.5,0s0,0.3,0.2,0.4s0.3,0.4,0.2,0.6s-0.4,0.2-0.7,0.1s-0.4-0.1-0.5,0
		C15.4,66,15.3,66,15.3,66z"/>
	<path class="st1" d="M46.2,85.4L46.2,85.4L46.2,85.4c0-0.3-0.3-0.6-0.6-0.9S44.9,84,45,83.6s0.6-0.4,1-0.4s0.8-0.1,0.9-0.3
		s-0.3-0.5-0.6-0.8s-0.7-0.6-0.6-0.9s0.6-0.4,1-0.4s0.8-0.1,0.9-0.3S47.3,80,47,79.7s-0.7-0.6-0.6-0.9s0.6-0.4,1-0.4
		s0.8-0.1,0.9-0.3l0.1-0.1v0.1c-0.1,0.4-0.6,0.4-1,0.4s-0.8,0.1-0.9,0.3s0.2,0.5,0.5,0.8s0.7,0.6,0.6,0.9s-0.6,0.4-1,0.4
		s-0.8,0.1-0.9,0.3s0.3,0.5,0.6,0.8s0.7,0.6,0.6,0.9s-0.6,0.4-1,0.4s-0.8,0.1-0.9,0.3s0.3,0.5,0.6,0.8S46.4,85,46.2,85.4
		C46.3,85.4,46.3,85.4,46.2,85.4z"/>
	<path class="st1" d="M75.8,26.7C75.7,26.7,75.7,26.7,75.8,26.7c-0.3-0.2-0.2-0.6-0.1-1s0.3-0.7,0.1-0.8s-0.5,0-0.8,0.2
		s-0.8,0.4-1,0.1s-0.1-0.6,0-1s0.3-0.7,0.1-0.8s-0.5,0-0.8,0.2s-0.8,0.4-1,0.1s-0.1-0.6,0-1s0.2-0.7,0.1-0.8s-0.5,0-0.8,0.2
		s-0.8,0.4-1,0.1v-0.1h0.1c0.2,0.1,0.5,0,0.8-0.2s0.8-0.4,1-0.1s0.1,0.6,0,1s-0.3,0.7-0.1,0.8s0.5,0,0.8-0.2s0.8-0.4,1-0.1
		s0.1,0.6,0,1s-0.3,0.7-0.1,0.8s0.5,0,0.8-0.2s0.8-0.4,1-0.1s0.1,0.6,0,1s-0.3,0.7-0.1,0.8C75.9,26.6,75.9,26.7,75.8,26.7L75.8,26.7
		L75.8,26.7z"/>
	<path class="st1" d="M16.3,46.1L16.3,46.1c-0.3,0-0.3-0.4-0.4-0.7c-0.1-0.3-0.1-0.5-0.3-0.5s-0.3,0.2-0.4,0.4s-0.3,0.5-0.6,0.5
		s-0.3-0.4-0.4-0.7s-0.1-0.5-0.3-0.5s-0.3,0.2-0.4,0.4s-0.3,0.5-0.6,0.5s-0.3-0.4-0.4-0.7s-0.1-0.5-0.3-0.5s-0.3,0.2-0.4,0.4
		s-0.3,0.5-0.6,0.5l-0.1-0.1c0,0,0,0,0.1-0.1c0.1,0,0.3-0.2,0.4-0.4s0.3-0.5,0.6-0.5s0.3,0.4,0.4,0.7s0.1,0.5,0.3,0.5
		s0.3-0.2,0.4-0.4s0.3-0.5,0.6-0.5s0.3,0.4,0.4,0.7s0.1,0.5,0.3,0.5s0.3-0.2,0.4-0.4s0.3-0.5,0.6-0.5s0.3,0.4,0.4,0.7
		s0.1,0.5,0.2,0.5C16.4,45.9,16.4,46,16.3,46.1C16.4,46,16.4,46,16.3,46.1C16.4,46.1,16.4,46.1,16.3,46.1z"/>
	<path class="st1" d="M21.3,87.6C21.2,87.6,21.2,87.6,21.3,87.6c-0.1-0.1-0.3-0.1-0.4-0.1s-0.4,0-0.5-0.2s0.1-0.3,0.3-0.4
		s0.2-0.2,0.2-0.2s-0.2-0.1-0.3-0.1s-0.4,0-0.5-0.2s0.1-0.3,0.3-0.4s0.2-0.2,0.2-0.2s-0.2-0.1-0.3-0.1s-0.4,0-0.5-0.2
		s0.1-0.3,0.3-0.4s0.2-0.2,0.2-0.2s0-0.1,0.1-0.1c0,0,0.1,0,0.1,0.1c0,0.2-0.1,0.3-0.3,0.4s-0.2-0.1-0.2,0s0.2,0.1,0.3,0.1
		s0.4,0,0.5,0.2s-0.1,0.3-0.3,0.4s-0.2,0.2-0.2,0.2s0.2,0.1,0.3,0.1s0.4,0,0.5,0.2s-0.1,0.3-0.3,0.4s-0.2,0.2-0.2,0.2
		s0.2,0.1,0.3,0.1s0.4,0,0.5,0.2C21.3,87.5,21.3,87.6,21.3,87.6L21.3,87.6L21.3,87.6z"/>
	<path class="st1" d="M92.4,43.4L92.4,43.4c-0.1-0.1-0.1-0.2-0.1-0.4s0-0.2,0-0.2s-0.1,0.1-0.2,0.1s-0.2,0.2-0.4,0.1
		s-0.1-0.2-0.1-0.4s0-0.2,0-0.2s-0.1,0.1-0.2,0.1s-0.2,0.2-0.4,0.1s-0.1-0.2-0.1-0.4s0-0.2,0-0.2s-0.1,0.1-0.2,0.1s-0.2,0.2-0.4,0.1
		v-0.1h0.1c0,0,0.1-0.1,0.2-0.1s0.3,0,0.4,0s0.1,0.2,0.1,0.4s0,0.2,0,0.2s0.1-0.1,0.2-0.1s0.2-0.2,0.4-0.2s0.1,0.2,0.1,0.4
		s0,0.2,0,0.2s0.1-0.1,0.2-0.1s0.2-0.2,0.4-0.2s0.1,0.2,0.1,0.4s0,0.2,0,0.2L92.4,43.4C92.4,43.4,92.4,43.4,92.4,43.4z"/>
	<path class="st1" d="M86,75.8L86,75.8c-0.4,0-0.5-0.4-0.7-0.8s-0.3-0.7-0.5-0.7l0,0c-0.2,0-0.4,0.3-0.6,0.7s-0.3,0.8-0.7,0.8
		S83,75.4,82.8,75s-0.3-0.7-0.5-0.7s-0.4,0.3-0.6,0.7s-0.3,0.8-0.7,0.8s-0.5-0.4-0.7-0.8s-0.3-0.7-0.5-0.7c0,0-0.1,0-0.1-0.1
		c0,0,0-0.1,0.1-0.1c0.4,0,0.5,0.4,0.7,0.8s0.3,0.7,0.5,0.7s0.4-0.3,0.6-0.7s0.3-0.8,0.7-0.8s0.5,0.4,0.7,0.8s0.3,0.7,0.5,0.7
		s0.4-0.3,0.6-0.7s0.4-0.8,0.7-0.8s0.5,0.4,0.7,0.8s0.3,0.7,0.5,0.7s0.4-0.3,0.6-0.7s0.3-0.8,0.7-0.8c0,0,0.1,0,0.1,0.1
		c0,0,0,0.1-0.1,0.1c0,0,0,0-0.1,0c-0.2,0-0.4,0.3-0.6,0.7S86.4,75.8,86,75.8z"/>
	<path class="st1" d="M18.3,57.8L18.3,57.8c-0.1,0-0.1-0.1-0.1-0.1l0,0c0.2-0.3-0.1-0.7-0.4-1s-0.6-0.9-0.4-1.2s0.8-0.3,1.3-0.2
		s0.9,0.2,1.1-0.1s-0.1-0.7-0.4-1S18.8,53.3,19,53s0.8-0.3,1.3-0.2s0.9,0.2,1.1-0.1s-0.1-0.7-0.4-1s-0.6-0.9-0.4-1.2
		s0.8-0.3,1.3-0.1s0.9,0.2,1.1-0.1h0.1l0,0v0.1c-0.2,0.4-0.8,0.2-1.3,0.1s-0.9-0.2-1.1,0.1s0.1,0.7,0.4,1s0.6,0.9,0.4,1.2
		s-0.8,0.3-1.3,0.1s-0.9-0.2-1.1,0.1s0.1,0.7,0.4,1s0.6,0.9,0.4,1.2s-0.8,0.3-1.3,0.1s-0.9-0.2-1.1,0.1s0.1,0.7,0.4,1
		S18.6,57.3,18.3,57.8C18.3,57.7,18.3,57.8,18.3,57.8z"/>
	<path class="st1" d="M70.7,54C70.7,54,70.6,54,70.7,54c-0.2-0.3,0-0.6,0.3-1s0.5-0.5,0.4-0.7s-0.5-0.2-0.8-0.1s-0.8,0.1-1-0.2
		s0.1-0.6,0.4-0.9s0.5-0.5,0.4-0.8S69.9,50,69.5,50s-0.8,0.1-1-0.2s0.1-0.6,0.4-0.9s0.5-0.5,0.4-0.8S68.8,48,68.4,48s-0.8,0.1-1-0.2
		v-0.1h0.1c0.1,0.2,0.5,0.2,0.8,0.1s0.8-0.1,1,0.2s0,0.7-0.3,1s-0.5,0.5-0.4,0.8s0.5,0.2,0.8,0.1s0.8-0.1,1,0.2s-0.1,0.6-0.4,1
		s-0.5,0.5-0.4,0.8s0.5,0.2,0.8,0.1s0.8-0.1,1,0.2s-0.1,0.6-0.4,0.9s-0.5,0.5-0.4,0.8C70.8,53.9,70.8,54,70.7,54L70.7,54z"/>
	<path class="st1" d="M12.9,77.1L12.9,77.1c-0.1-0.1-0.1-0.3,0-0.3s0.1-0.1,0.1-0.2s-0.1,0-0.2,0s-0.3,0-0.4-0.1s0-0.3,0.1-0.4
		s0.1-0.1,0.1-0.2s-0.1,0-0.2,0s-0.3,0-0.4-0.1s0-0.3,0.1-0.3s0.1-0.1,0.1-0.2s-0.1,0-0.2,0s-0.3,0-0.4-0.1v-0.1h0.1
		c0,0,0.1,0,0.2,0s0.3,0,0.4,0.1s0,0.3-0.1,0.4s-0.1,0.1-0.1,0.2s0.1,0,0.2,0s0.3,0,0.4,0.1s0,0.3-0.1,0.3s-0.1,0.1-0.1,0.2
		s0.1,0,0.2,0s0.3,0,0.4,0.1s0,0.3-0.1,0.4S12.9,77,12.9,77.1C13,77.1,13,77.1,12.9,77.1L12.9,77.1z"/>
	<path class="st1" d="M67.1,76.5L67.1,76.5c-0.3-0.3-0.1-0.7,0.2-1.1s0.4-0.7,0.2-0.9s-0.6-0.1-1,0s-0.9,0.3-1.2,0s0-0.7,0.2-1.1
		s0.4-0.7,0.2-0.9s-0.6-0.1-1,0s-0.9,0.3-1.2,0s0-0.7,0.2-1.1s0.4-0.7,0.2-0.9s-0.6-0.1-1,0s-0.9,0.3-1.2,0v-0.1l0,0h0.1
		c0.2,0.2,0.6,0.1,1,0s0.9-0.3,1.2,0s0,0.7-0.2,1.1s-0.4,0.7-0.2,0.9s0.6,0.1,1,0s0.9-0.3,1.2,0s0,0.7-0.2,1.1s-0.4,0.7-0.2,0.9
		s0.6,0.1,1,0s0.9-0.3,1.2,0s0,0.7-0.2,1.1S67,76.2,67.1,76.5C67.2,76.4,67.2,76.5,67.1,76.5C67.2,76.5,67.2,76.5,67.1,76.5
		C67.2,76.5,67.1,76.5,67.1,76.5z"/>
	<path class="st1" d="M26.7,86.4c-0.1,0-0.1,0-0.2-0.1s0-0.3,0.1-0.4s0.1-0.2,0.1-0.2s-0.1,0-0.2,0s-0.3,0.1-0.4,0s0-0.3,0.1-0.4
		s0.1-0.2,0.1-0.2s-0.1,0-0.2,0s-0.3,0.1-0.4,0s0-0.3,0.1-0.4s0.1-0.2,0.1-0.2v-0.1l0,0H26c0.1,0.1,0,0.3-0.1,0.4S25.7,85,25.7,85
		s0.1,0,0.2,0s0.3-0.1,0.4,0.1s0,0.3-0.1,0.4s-0.1,0.2-0.1,0.2s0.1,0,0.2,0s0.3-0.1,0.4,0s0,0.3-0.1,0.4s-0.1,0.2-0.1,0.2
		s0.1,0,0.2,0s0.3-0.1,0.4,0c0,0,0,0.1-0.1,0.1h-0.1C26.9,86.4,26.8,86.4,26.7,86.4L26.7,86.4z"/>
	<path class="st1" d="M43.1,71.5L43.1,71.5c-0.4-0.2-0.3-0.8-0.2-1.3s0.2-1-0.1-1.1s-0.7,0.1-1.1,0.4s-0.9,0.7-1.3,0.4
		s-0.3-0.8-0.2-1.3s0.2-1-0.1-1.1s-0.7,0.1-1.1,0.4s-0.9,0.7-1.3,0.4s-0.3-0.8-0.2-1.3s0.2-1-0.1-1.1s-0.7,0.1-1.1,0.4
		S35.4,67,35,66.7v-0.1h0.1c0.3,0.2,0.7-0.1,1.1-0.4s0.9-0.7,1.3-0.4s0.3,0.8,0.2,1.3s-0.2,1,0.1,1.1s0.7-0.1,1.1-0.4
		s0.9-0.7,1.3-0.4s0.3,0.8,0.2,1.3s-0.2,1,0.1,1.1s0.7-0.1,1.1-0.4s0.9-0.7,1.3-0.4s0.3,0.8,0.2,1.3S42.9,71.3,43.1,71.5L43.1,71.5
		L43.1,71.5C43.2,71.6,43.1,71.6,43.1,71.5z"/>
	<path class="st1" d="M15.9,50.4L15.9,50.4c-0.1,0-0.2-0.2-0.2-0.3s0-0.1,0-0.1l-0.1,0.1c0,0-0.1,0.2-0.3,0.2s-0.2-0.2-0.2-0.3
		s0-0.1-0.1-0.2l-0.1,0.1c-0.1,0.1-0.1,0.2-0.3,0.2s-0.2-0.2-0.2-0.3s0-0.1-0.1-0.2l-0.1,0.1c-0.1,0.1-0.1,0.2-0.3,0.2l-0.1-0.1
		l0.1-0.1l0.1-0.1c0.1-0.1,0.1-0.2,0.3-0.2s0.2,0.2,0.2,0.3s0,0.1,0.1,0.2l0.1-0.1c0.1-0.1,0.1-0.2,0.3-0.2c0.1,0,0.2,0.2,0.2,0.3
		s0,0.1,0.1,0.1l0.1-0.1c0,0,0.1-0.2,0.3-0.2s0.2,0.2,0.2,0.3s0,0.1,0.1,0.1C16,50.3,16,50.3,15.9,50.4C16,50.4,16,50.4,15.9,50.4z"
		/>
	<path class="st1" d="M8.1,83.9C8.1,83.9,8,83.8,8.1,83.9c-0.1-0.1-0.1-0.2,0-0.2l0,0c0.3,0,0.4-0.4,0.5-0.7s0.3-0.8,0.7-0.8l0,0
		c0.4,0,0.5,0.4,0.7,0.8s0.3,0.7,0.6,0.7s0.4-0.4,0.5-0.7s0.3-0.8,0.7-0.8l0,0c0.4,0,0.5,0.4,0.7,0.8s0.3,0.7,0.6,0.7
		s0.4-0.4,0.5-0.7s0.3-0.8,0.7-0.8s0.6,0.4,0.7,0.8c0.2,0.4,0.3,0.7,0.5,0.7l0,0c0,0,0.1,0,0.1,0.1l0,0c0,0,0,0.1-0.1,0.1l0,0l0,0
		c-0.4,0-0.5-0.4-0.7-0.8s-0.3-0.7-0.6-0.7l0,0c-0.3,0-0.4,0.4-0.5,0.7s-0.3,0.8-0.7,0.8l0,0c-0.4,0-0.5-0.4-0.7-0.8
		s-0.3-0.7-0.6-0.7s-0.4,0.4-0.5,0.7s-0.3,0.8-0.7,0.8s-0.6-0.4-0.7-0.8s-0.3-0.7-0.6-0.7l0,0c-0.3,0-0.4,0.4-0.5,0.7
		S8.5,83.9,8.1,83.9L8.1,83.9z"/>
	<path class="st1" d="M57.8,13.6c-0.1,0-0.2,0-0.3-0.1c-0.3-0.2-0.2-0.7-0.1-1.2s0.2-0.9-0.1-1s-0.6,0.1-1,0.3s-0.8,0.6-1.2,0.4
		s-0.2-0.7-0.1-1.2s0.2-0.9-0.1-1s-0.6,0.1-1,0.4s-0.8,0.6-1.2,0.4s-0.2-0.7-0.1-1.2s0.2-0.9-0.1-1V8.3h0.1c0.3,0.2,0.2,0.7,0.1,1.2
		s-0.2,0.9,0.1,1s0.6-0.1,1-0.4s0.8-0.6,1.2-0.4s0.2,0.7,0.1,1.2s-0.2,0.9,0.1,1s0.6-0.1,1-0.4s0.8-0.6,1.2-0.4s0.2,0.7,0.1,1.2
		s-0.2,0.9,0.1,1s0.6-0.1,1-0.4s0.8-0.6,1.2-0.4v0.1h-0.1c-0.2-0.2-0.6,0.1-1,0.4C58.4,13.4,58.1,13.5,57.8,13.6z"/>
	<path class="st1" d="M54.3,88.9L54.3,88.9c-0.1,0-0.2-0.2-0.2-0.3s0-0.2-0.1-0.2s0,0.1,0,0.1s-0.2,0.2-0.3,0.2s-0.2-0.2-0.2-0.3
		s0-0.2-0.1-0.2s-0.1,0.1-0.1,0.2s-0.2,0.2-0.3,0.2s-0.2-0.2-0.2-0.3s0-0.2-0.1-0.2c0,0-0.1,0-0.1-0.1l0,0l0.1-0.1
		c0.1,0,0.2,0.2,0.2,0.3s0,0.2,0.1,0.2s0.1-0.1,0.1-0.1s0.2-0.2,0.3-0.2s0.2,0.2,0.2,0.3c0,0.1,0,0.1,0.1,0.2c0,0,0.1-0.1,0.1-0.2
		s0.2-0.2,0.3-0.2s0.2,0.2,0.2,0.3s0,0.2,0.1,0.2s0.1-0.1,0.1-0.1s0.2-0.3,0.3-0.2c0,0,0.1,0,0.1,0.1l0,0l-0.1,0.1l-0.1,0.1
		C54.7,88.7,54.5,88.9,54.3,88.9z"/>
	<path class="st1" d="M38.2,73.3L38.2,73.3c-0.2,0-0.2-0.2-0.3-0.3s-0.1-0.2-0.1-0.2s-0.1,0.1-0.1,0.2s-0.2,0.3-0.3,0.3
		s-0.2-0.2-0.3-0.3S37,72.7,37,72.7s-0.1,0.1-0.2,0.2s-0.1,0.3-0.3,0.3s-0.2-0.2-0.3-0.3s-0.1-0.2-0.1-0.2S36,72.8,36,72.9
		s-0.1,0.3-0.3,0.3c0,0-0.1,0-0.1-0.1l0.1-0.1c0,0,0.1-0.1,0.1-0.2s0.1-0.3,0.3-0.3s0.2,0.2,0.3,0.3s0.1,0.2,0.1,0.2
		s0.1-0.1,0.2-0.2s0.1-0.3,0.3-0.3s0.2,0.2,0.3,0.3s0.1,0.2,0.1,0.2l0,0c0,0,0.1-0.1,0.2-0.2s0.1-0.3,0.3-0.3s0.2,0.2,0.3,0.3
		s0.1,0.2,0.1,0.2s0.1,0,0.1,0.1S38.3,73.3,38.2,73.3L38.2,73.3L38.2,73.3z"/>
	<path class="st1" d="M8.6,16.5H8.5c-0.4-0.1-0.5-0.7-0.6-1.2s-0.1-1-0.4-1.1s-0.7,0.4-1,0.8s-0.7,0.9-1.1,0.8S5,15.1,4.9,14.6
		s-0.1-1-0.4-1.1s-0.6,0.3-0.9,0.7S2.9,15.1,2.4,15s-0.5-0.7-0.6-1.2s-0.1-1-0.5-1.1l-0.1-0.1l0,0l0.1-0.1C1.9,12.7,2,13.3,2,13.8
		s0.1,1,0.5,1.1s0.6-0.3,0.9-0.7s0.7-0.9,1.1-0.8S5,14,5,14.6s0.1,1,0.5,1.1s0.6-0.3,0.9-0.7s0.6-1,1.1-0.9s0.5,0.7,0.6,1.2
		s0.1,1,0.5,1.1s0.6-0.3,0.9-0.7s0.6-0.9,1.1-0.8l0.1,0.1l-0.1,0.1l0,0c-0.3-0.1-0.6,0.3-0.9,0.7C9.4,16.2,9,16.5,8.6,16.5z"/>
	<path class="st1" d="M28.3,49.1L28.3,49.1C28.2,49.1,28.2,49,28.3,49.1C28.2,49,28.2,49,28.3,49.1c-0.1-0.5-0.6-0.7-1.1-0.9
		s-1.1-0.5-1.1-1s0.6-0.7,1.2-0.9s1-0.3,1.1-0.7s-0.5-0.6-1-0.8s-1.1-0.5-1.1-1s0.6-0.7,1.2-0.9s1-0.3,1.1-0.7s-0.5-0.6-1-0.8
		s-1.1-0.5-1.1-1s0.6-0.7,1.2-0.9s1-0.3,1.1-0.7c0,0,0-0.1,0.1-0.1c0,0,0.1,0,0.1,0.1c0,0.5-0.6,0.7-1.2,0.9s-1,0.3-1.1,0.7
		s0.5,0.6,1,0.8s1.1,0.5,1.1,1s-0.6,0.7-1.2,0.9s-1,0.3-1.1,0.7s0.5,0.6,1,0.8s1.1,0.5,1.1,1s-0.6,0.7-1.2,0.9s-1,0.3-1.1,0.7
		s0.5,0.6,1,0.8s1.1,0.5,1.1,1C28.4,49,28.3,49.1,28.3,49.1L28.3,49.1z"/>
	<path class="st1" d="M38,11.1L38,11.1c-0.2,0-0.2-0.2-0.3-0.3s-0.1-0.2-0.1-0.2s-0.1,0.1-0.1,0.2S37.4,11,37.3,11s-0.2-0.2-0.3-0.3
		s-0.1-0.2-0.1-0.2l0,0c0,0-0.1,0.1-0.1,0.2S36.7,11,36.5,11l0,0c-0.2,0-0.2-0.2-0.3-0.3s-0.1-0.2-0.1-0.2S36,10.6,36,10.7
		S35.9,11,35.8,11l0,0c0,0-0.1,0-0.1-0.1c0,0,0-0.1,0.1-0.1c0,0,0,0,0.1,0l0,0c0,0,0.1-0.1,0.1-0.2s0.1-0.3,0.3-0.3s0.2,0.2,0.3,0.3
		s0.1,0.2,0.1,0.2s0.1-0.1,0.1-0.2s0.1-0.3,0.3-0.3s0.2,0.2,0.3,0.3s0.1,0.2,0.1,0.2l0,0c0,0,0.1-0.1,0.1-0.2s0.1-0.3,0.3-0.3
		s0.2,0.2,0.3,0.3s0.1,0.2,0.1,0.2C38.1,10.9,38.1,11,38,11.1C38.1,11,38.1,11.1,38,11.1L38,11.1z"/>
	<path class="st1" d="M1.9,81.8C1.9,81.8,1.8,81.7,1.9,81.8c-0.1-0.3,0.1-0.4,0.2-0.5s0.3-0.1,0.2-0.2S2.2,81,2.1,81
		s-0.4-0.1-0.4-0.3s0.2-0.3,0.3-0.4c0.1-0.1,0.3-0.1,0.2-0.2S2.1,80,2,80s-0.4-0.1-0.4-0.3s0.2-0.3,0.3-0.4c0.1-0.1,0.3-0.1,0.2-0.2
		S2,79,1.8,79s-0.4-0.1-0.4-0.3c0,0,0-0.1,0.1-0.1l0,0c0,0,0.1,0,0.1,0.1l0,0c0,0.1,0.2,0.1,0.3,0.1c0.1,0,0.4,0.1,0.4,0.3
		S2.1,79.4,2,79.5s-0.3,0.2-0.3,0.2s0.2,0.1,0.3,0.1s0.4,0.1,0.4,0.3s-0.2,0.3-0.3,0.4s-0.3,0.1-0.2,0.2s0.2,0.1,0.3,0.1
		s0.4,0.1,0.4,0.3s-0.2,0.3-0.3,0.4S2,81.7,1.9,81.8C2,81.8,2,81.8,1.9,81.8L1.9,81.8z"/>
	<path class="st1" d="M57.9,42.5L57.9,42.5C57.9,42.5,57.9,42.4,57.9,42.5C57.8,42.4,57.8,42.4,57.9,42.5c0.1-0.3,0.4-0.3,0.7-0.4
		s0.5,0,0.5-0.1s-0.1-0.3-0.3-0.5s-0.4-0.4-0.3-0.6s0.4-0.2,0.7-0.3s0.5,0,0.5-0.1s-0.1-0.3-0.3-0.5s-0.4-0.4-0.3-0.6
		s0.4-0.2,0.7-0.3s0.5,0,0.5-0.1s-0.1-0.3-0.3-0.5s-0.4-0.4-0.3-0.6c0,0,0.1-0.1,0.1,0V38c0,0.1,0.1,0.3,0.3,0.5s0.4,0.4,0.3,0.6
		s-0.4,0.2-0.7,0.3s-0.5,0-0.5,0.1s0.1,0.3,0.3,0.5s0.4,0.4,0.3,0.6s-0.4,0.2-0.7,0.3s-0.5,0-0.5,0.1s0.1,0.3,0.3,0.5
		s0.4,0.4,0.3,0.6s-0.4,0.2-0.7,0.2S58,42.3,57.9,42.5C58,42.5,57.9,42.5,57.9,42.5z"/>
	<path class="st1" d="M6.9,35.5L6.9,35.5L6.9,35.5l0.7-1.6l-1,0.4H6.5v-0.1l0.9-1.8h0.1v0.1L6.7,34l1-0.4h0.1v0.1L6.9,35.5
		C7,35.5,7,35.5,6.9,35.5z"/>
	<path class="st1" d="M1.8,8.6L1.8,8.6c0,0-0.1-0.1,0-0.1L2,7.7L1.6,7.9H1.5c0,0,0,0,0-0.1L1.8,7h0.1l0,0L1.7,7.6L2,7.5h0.1v0.1
		L1.8,8.6C1.8,8.5,1.8,8.5,1.8,8.6z"/>
	<path class="st1" d="M73.2,81.2L73.2,81.2C73.2,81.2,73.1,81.2,73.2,81.2L73.1,81l1.9-4.6l-2.9,1.2H72v-0.1l1.8-4.4h0.1v0.1
		l-1.7,4.2l2.9-1.2h0.1v0.1L73.2,81.2L73.2,81.2z"/>
	<path class="st1" d="M50.2,74.8C50.1,74.8,50.1,74.8,50.2,74.8l-0.3-4.1L48,72.8h-0.1c0,0-0.1,0-0.1-0.1L47.5,68c0,0,0-0.1,0.1-0.1
		l0,0c0,0,0.1,0,0.1,0.1l0,0l0.3,4.5l1.9-2.1H50c0,0,0.1,0,0.1,0.1L50.2,74.8C50.3,74.7,50.3,74.8,50.2,74.8L50.2,74.8z"/>
	<path class="st1" d="M6.9,63.3L6.9,63.3L6.9,63.3L7,62.6l-0.3,0.2H6.6v-0.1l0.3-0.9L7,61.7l0.1,0.1l-0.2,0.7L7,62.3h0.1v0.1
		L6.9,63.3C6.9,63.2,6.9,63.3,6.9,63.3z"/>
	<path class="st1" d="M21.6,27.7L21.6,27.7l-2.3-3.1l-0.4,2.6c0,0,0,0.1-0.1,0.1h-0.1l-2.6-3.6v-0.1h0.1l0,0l2.5,3.4l0.4-2.6
		c0,0,0-0.1,0.1-0.1h0.1l2.4,3.2C21.7,27.6,21.7,27.6,21.6,27.7C21.7,27.7,21.7,27.7,21.6,27.7L21.6,27.7z"/>
	<path class="st1" d="M56.4,71.9L56.4,71.9C56.3,71.9,56.3,71.9,56.4,71.9C56.3,71.8,56.3,71.8,56.4,71.9l1.1-2.7l-1.6,0.7h-0.1
		v-0.1l1.1-2.6H57c0,0,0.1,0.1,0,0.1l-1,2.4l1.6-0.7h0.1v0.1L56.4,71.9C56.5,71.9,56.4,72,56.4,71.9L56.4,71.9z"/>
	<path class="st1" d="M96,91.1L96,91.1L96,91.1l0.4-1.8l-0.9,0.5h-0.1v-0.1l0.5-1.7l0.1-0.1l0.1,0.1l-0.4,1.5l0.9-0.5
		c0,0,0.1,0,0.1,0.1l0,0L96.2,91C96.2,91.1,96.2,91.1,96,91.1C96.1,91.1,96.1,91.1,96,91.1z"/>
	<path class="st1" d="M95.3,70.5L95.3,70.5L95.3,70.5l0.5-1.2l-0.7,0.2H95v-0.1l0.6-1.1h0.1v0.1l-0.5,1l0.7-0.2H96v0.1l-0.6,1.3
		C95.4,70.6,95.3,70.5,95.3,70.5z"/>
	<path class="st1" d="M32.3,16C32.3,16.1,32.3,16.1,32.3,16l-1.2-2.1l-0.5,1.6c0,0,0,0.1-0.1,0.1h-0.1L29.1,13v-0.1l0,0h0.1l1.3,2.3
		l0.5-1.6c0,0,0,0,0-0.1h0.1l1.2,2.3C32.4,15.9,32.4,16,32.3,16C32.4,16,32.4,16,32.3,16L32.3,16z"/>
	<path class="st1" d="M3.1,66.4C3.1,66.5,3.1,66.5,3.1,66.4l-0.7-1l-0.2,0.7c0,0,0,0-0.1,0.1s-0.1,0-0.1,0L1.5,65v-0.1h0.1l0,0
		l0.5,0.9l0.2-0.7c0,0,0-0.1,0.1-0.1h0.1l0.7,1.2C3.2,66.3,3.2,66.4,3.1,66.4L3.1,66.4z"/>
	<path class="st1" d="M68.6,31.5L68.6,31.5c-0.1,0-0.1-0.1-0.1-0.1l1.4-1.9l-1.6,0.2h-0.1v-0.1l1.7-2.3H70v0.1l-1.6,2.1l1.6-0.2h0.1
		v0.1L68.6,31.5C68.7,31.4,68.7,31.4,68.6,31.5C68.7,31.5,68.6,31.5,68.6,31.5z"/>
	<path class="st1" d="M19,72.1L19,72.1l-0.7-0.7V72v0.1h-0.1l-0.7-0.7v-0.1h0.1l0.6,0.6v-0.5v-0.1h0.1L19,72.1
		C19.1,72,19.1,72.1,19,72.1L19,72.1z"/>
	<path class="st1" d="M26.5,91.5C26.4,91.5,26.4,91.5,26.5,91.5L26,90.8l-0.1,0.5c0,0,0,0.1-0.1,0.1h-0.1l-0.5-0.8v-0.1l0,0h0.1
		l0.4,0.6l0.1-0.5c0,0,0-0.1,0.1-0.1H26l0.6,0.9C26.6,91.4,26.6,91.4,26.5,91.5L26.5,91.5L26.5,91.5z"/>
	<path class="st1" d="M23.6,80.1C23.6,80.1,23.5,80.1,23.6,80.1l-2.9-2.9V80c0,0,0,0.1-0.1,0.1h-0.1l-3.3-3.3v-0.1h0.1l3.2,3.2V77
		v-0.1h0.1l3,3C23.7,80,23.7,80,23.6,80.1L23.6,80.1L23.6,80.1z"/>
	<path class="st1" d="M35,95.9L35,95.9C34.9,95.9,34.9,95.8,35,95.9L35,95.9l2.9-2.4l-2.6-0.3c0,0-0.1,0-0.1-0.1V93l3.5-2.7h0.1v0.1
		L35.6,93l2.6,0.3c0,0,0.1,0,0.1,0.1v0.1L35,95.9L35,95.9z"/>
	<path class="st1" d="M4.7,95.2L4.7,95.2l-1.6-2l-0.2,1.5c0,0,0,0.1-0.1,0.1H2.7l-1.5-2c0,0,0-0.1,0.1-0.1h0.1l1.3,1.8L3,92.9
		c0,0,0-0.1,0.1-0.1h0.1L4.8,95C4.9,95,4.9,95.1,4.7,95.2C4.8,95.1,4.8,95.1,4.7,95.2L4.7,95.2z"/>
	<path class="st1" d="M77.7,48.8L77.7,48.8C77.6,48.8,77.6,48.7,77.7,48.8L77.7,48.8l3-2.6l-2.5-0.3c0,0-0.1,0-0.1-0.1v-0.1l3-2.4
		c0,0,0.1,0,0.1,0.1v0.1l-2.8,2.3L81,46c0,0,0.1,0,0.1,0.1v0.1L77.7,48.8C77.8,48.8,77.8,48.8,77.7,48.8z"/>
	<path class="st1" d="M80.9,32C80.9,32,80.8,32,80.9,32L80.9,32l-0.2-2.4l-1,1h-0.1c0,0-0.1,0-0.1-0.1l-0.1-2.3c0,0,0-0.1,0.1-0.1
		c0,0,0.1,0,0.1,0.1l0.1,2.1l1-1h0.1c0,0,0.1,0,0.1,0.1V32C81,31.9,81,32,80.9,32L80.9,32z"/>
	<path class="st1" d="M11.6,95.5L11.6,95.5L10.5,95v-0.1h0.1l0.9,0.4l-0.2-0.6v-0.1h0.1l1.2,0.5v0.1c0,0-0.1,0.1-0.1,0l-1-0.4
		L11.6,95.5C11.7,95.4,11.7,95.4,11.6,95.5L11.6,95.5z"/>
	<path class="st1" d="M66.2,3.1L66.2,3.1C66.2,3.1,66.1,3.1,66.2,3.1L66.2,3.1l0.1-1.4l-0.7,0.5h-0.1V2.1l0.3-1.7c0,0,0-0.1,0.1-0.1
		l0,0c0,0,0.1,0,0.1,0.1l0,0l-0.3,1.5l0.7-0.5h0.1v0.1L66.2,3.1L66.2,3.1L66.2,3.1z"/>
	<path class="st1" d="M70.4,7.2L70.4,7.2l-1.1-0.5V6.6h0.1l1,0.4L70,6.4V6.3h0.1l1,0.4v0.1H71l-0.8-0.4L70.4,7
		C70.4,7,70.4,7.1,70.4,7.2C70.4,7.1,70.4,7.1,70.4,7.2z"/>
	<path class="st1" d="M77,19.8L77,19.8c-0.1-0.1,0-0.2,0-0.2l4.1-0.3l-1.9-1.7v-0.1c0,0,0-0.1,0.1,0l4-0.2c0,0,0.1,0,0.1,0.1
		c0,0,0,0.1-0.1,0.1c0,0,0,0-0.1,0l-3.7,0.2l1.9,1.7v0.1h-0.1L77,19.8z"/>
	<path class="st1" d="M94.8,20.1L94.8,20.1L94.7,20l1-3.5l-2.2,1.2h-0.1v-0.1l1.1-4.1l0.1-0.1l0.1,0.1l-1.1,3.9l2.2-1.3h0.1v0.1
		l-1,3.7C94.9,20.1,94.9,20.1,94.8,20.1L94.8,20.1z"/>
	<path class="st1" d="M77.6,70.6L77.6,70.6l-0.9-0.5V70h0.1l0.7,0.4L77.4,70v-0.1h0.1l0.8,0.4v0.1h-0.1L77.5,70l0.1,0.4
		C77.7,70.4,77.7,70.5,77.6,70.6C77.7,70.5,77.6,70.6,77.6,70.6z"/>
	<path class="st1" d="M91.4,90.1L91.4,90.1C91.4,90.1,91.3,90.1,91.4,90.1C91.3,90,91.3,90,91.4,90.1l1.1-4.9l-2.6,1.6h-0.1v-0.1
		l1.1-4.5l0.1-0.1l0.1,0.1l0,0l-1,4.3l2.5-1.6h0.1V85L91.4,90.1L91.4,90.1z"/>
	<path class="st1" d="M52.8,41.8L52.8,41.8l-1.3-0.1c0,0-0.1,0-0.1-0.1c0,0,0-0.1,0.1-0.1h1.1L52.1,41v-0.1h0.1l1.5,0.1
		c0,0,0.1,0,0.1,0.1l0,0c0,0,0,0.1-0.1,0.1l0,0l-1.3-0.1l0.5,0.5C52.9,41.7,52.9,41.7,52.8,41.8C52.9,41.8,52.9,41.8,52.8,41.8z"/>
	<path class="st1" d="M82.7,95.3L82.7,95.3l-0.5-0.7l-0.1,0.5c0,0,0,0.1-0.1,0.1h-0.1l-0.6-1v-0.1h0.1l0,0l0.5,0.8l0.1-0.5
		c0,0,0-0.1,0.1-0.1h0.1L82.7,95.3C82.8,95.2,82.8,95.2,82.7,95.3C82.8,95.3,82.8,95.3,82.7,95.3L82.7,95.3z"/>
	<path class="st1" d="M17,31.4L17,31.4l-0.2-1l-0.4,0.4h-0.1c0,0-0.1,0-0.1-0.1l-0.1-1.2c0,0,0-0.1,0.1-0.1l0,0c0,0,0.1,0,0.1,0.1
		l0,0l0.1,1l0.4-0.4h0.1c0,0,0.1,0,0.1,0.1V31.4C17.1,31.4,17.1,31.4,17,31.4L17,31.4L17,31.4z"/>
	<path class="st1" d="M7.7,24.7C7.7,24.7,7.6,24.7,7.7,24.7c-0.1-0.1-0.1-0.1-0.1-0.2l3.3-1.6l-2.4-0.8c0,0-0.1,0-0.1-0.1
		c0,0,0-0.1,0.1-0.1l3.7-1.9h0.1l0,0v0.1l-3.6,1.8l2.4,0.8c0,0,0.1,0,0.1,0.1v0.1L7.7,24.7L7.7,24.7z"/>
	<path class="st1" d="M46.8,2.7C46.8,2.7,46.7,2.7,46.8,2.7l-0.2-1.1L46.3,2h-0.1c0,0,0,0-0.1,0L46,0.9c0,0,0-0.1,0.1-0.1l0,0h0.1
		l0,0l0.1,0.9l0.4-0.4h0.1c0,0,0.1,0,0.1,0.1L47,2.6C46.9,2.7,46.9,2.7,46.8,2.7L46.8,2.7z"/>
	<path class="st1" d="M50.1,23.3L50.1,23.3c-0.1,0-0.1-0.1-0.1-0.1l0,0l0.9-1l-0.8,0.1H50v-0.1l1-1.2h0.1l0,0v0.1L50.4,22l0.8-0.1
		h0.1V22l-1,1.2C50.2,23.3,50.2,23.3,50.1,23.3z"/>
	<path class="st1" d="M27.9,55.7C27.9,55.7,27.8,55.6,27.9,55.7l-0.4-1.3L27,55.1h-0.1c0,0-0.1,0-0.1-0.1l-0.5-1.6
		c0,0,0-0.1,0.1-0.1c0,0,0.1,0,0.1,0.1l0.4,1.4l0.4-0.8h0.1c0,0,0.1,0,0.1,0.1L27.9,55.7C28,55.6,28,55.6,27.9,55.7L27.9,55.7
		L27.9,55.7z"/>
	<path class="st1" d="M85,48.2L85,48.2c-0.1-0.1,0-0.2,0-0.2l0,0l0.9-0.3l-0.5-0.2v-0.1c0,0,0-0.1,0.1-0.1l1-0.3c0,0,0.1,0,0.1,0.1
		l0,0v0.1l-0.8,0.2l0.5,0.2v0.1c0,0,0,0.1-0.1,0.1L85,48.2L85,48.2z"/>
	<path class="st1" d="M50,56.9L50,56.9l-1.1-0.7v-0.1H49l0,0l1,0.6L49.7,56v-0.1h0.1l1,0.7v0.1h-0.1l0,0l-0.9-0.5l0.1,0.7
		C50,56.8,50,56.9,50,56.9L50,56.9z"/>
	<path class="st1" d="M95.3,9.9L95.3,9.9V9.8L96,8.1l-1.1,0.5h-0.1c0,0,0,0,0-0.1l0.8-2.1l0.1-0.1l0,0v0.1L95,8.3l1-0.5h0.1v0.1
		L95.3,9.9C95.4,9.9,95.4,9.9,95.3,9.9z"/>
	<path class="st1" d="M1.4,49.9L1.4,49.9C1.4,49.9,1.3,49.9,1.4,49.9C1.3,49.8,1.3,49.8,1.4,49.9l0.1-0.8l-0.4,0.2H1v-0.1l0.3-1
		l0.1-0.1l0.1,0.1L1.3,49l0.4-0.2h0.1v0.1l-0.3,0.9C1.5,49.9,1.5,49.9,1.4,49.9L1.4,49.9z"/>
	<path class="st1" d="M68.6,86.5L68.6,86.5L68.6,86.5l0.9-3.1l-2,1h-0.1v-0.1l1.2-3.5h0.1v0.1l-1.1,3.3l2-1h0.1v0.1L68.6,86.5
		L68.6,86.5z"/>
	<path class="st1" d="M51.1,50.8L51.1,50.8L51.1,50.8l0.5-2.3l-1.4,0.7h-0.1v-0.1l0.8-2.6l0.1-0.1l0.1,0.1l-0.7,2.4l1.4-0.7h0.1v0.1
		L51.1,50.8C51.2,50.8,51.2,50.9,51.1,50.8z"/>
	<path class="st1" d="M30.6,62.8C30.6,62.9,30.6,62.9,30.6,62.8c-0.1,0-0.1-0.1-0.1-0.1l0,0l3.2-3.2h-3.1l0,0h-0.1v-0.1l3.6-3.7h0.1
		v0.1l0,0l-3.5,3.5h3.1l0,0h0.1v0.1L30.6,62.8C30.7,62.8,30.6,62.8,30.6,62.8z"/>
	<path class="st1" d="M54.9,35.1C54.9,35.1,54.8,35,54.9,35.1c-0.1-0.1-0.1-0.2,0-0.2l0,0h0.8l-0.4-0.3v-0.1c0,0,0-0.1,0.1-0.1
		l1.1-0.1c0,0,0.1,0,0.1,0.1c0,0,0,0.1-0.1,0.1l-0.9,0.1l0.4,0.3V35c0,0,0,0-0.1,0L54.9,35.1L54.9,35.1z"/>
	<path class="st1" d="M12.9,4C12.9,4,12.8,4,12.9,4l-0.7-2.1l-0.6,1.3c0,0,0,0-0.1,0c0,0-0.1,0-0.1-0.1l-0.8-2.4c0,0,0-0.1,0.1-0.1
		h0.1l0.7,2.2l0.6-1.3h0.1c0,0,0.1,0,0.1,0.1L12.9,4C13,3.9,13,4,12.9,4L12.9,4z"/>
	<path class="st1" d="M47,90C46.9,90,46.9,90,47,90c-0.1-0.1-0.1-0.1-0.1-0.2l0.8-0.3l-0.5-0.2c0,0-0.1,0,0-0.1v-0.1l0.9-0.4h0.1
		v0.1l-0.7,0.3l0.4,0.2c0,0,0.1,0,0.1,0.1c0,0,0,0.1-0.1,0.1L47,90L47,90z"/>
	<path class="st1" d="M63,29.1L63,29.1c0-0.1,0-0.1,0-0.2l0,0l2.8-3.6L63,25.6h-0.1v-0.1l2.6-3.5h0.1v0.1L63,25.4l2.9-0.3H66v0.1
		L63,29.1C63.1,29.1,63.1,29.1,63,29.1z"/>
	<path class="st1" d="M31.4,1.8C31.4,1.8,31.3,1.8,31.4,1.8c-0.1-0.1,0-0.2,0-0.2h1.4L32.2,1V0.9h0.1H34l0,0c0,0,0.1,0,0.1,0.1l0,0
		H34h-1.6l0.7,0.7v0.1c0,0,0,0.1-0.1,0.1h-1.6V1.8z"/>
	<path class="st1" d="M55.1,4.5L55.1,4.5l-4.8-1.7l-0.1-0.1l0,0h0.1L55,4.3l-1.3-2.8V1.4h0.1L58.1,3v0.1c0,0,0,0-0.1,0l-4.2-1.5
		l1.3,2.8C55.2,4.4,55.2,4.5,55.1,4.5C55.2,4.5,55.2,4.5,55.1,4.5z"/>
	<path class="st1" d="M4.2,42.9L4.2,42.9l-4.1-3v-0.1l0,0h0.1L4,42.7l-0.5-3.3v-0.1h0.1L8,42.6v0.1H7.9l0,0l-4.2-3.1L4.2,42.9
		C4.2,42.9,4.2,42.9,4.2,42.9L4.2,42.9z"/>
	<path class="st1" d="M65.2,96.1L65.2,96.1c-0.1-0.1-0.1-0.1,0-0.2l2.6-0.8l-1.5-0.8v-0.1c0,0,0-0.1,0.1-0.1l2.6-0.8
		c0,0,0.1,0,0.1,0.1c0,0,0,0.1-0.1,0.1l-2.4,0.8l1.5,0.8v0.1c0,0,0,0.1-0.1,0.1L65.2,96.1L65.2,96.1z"/>
	<path class="st1" d="M86.1,31.1C86.1,31.1,86,31,86.1,31.1L85.4,29l-0.7,1.3c0,0-0.1,0.1-0.1,0l0,0l-0.7-2.4c0,0,0-0.1,0.1-0.1l0,0
		h0.1l0.7,2.2l0.7-1.3h0.1c0,0,0.1,0,0.1,0.1L86.1,31.1C86.2,31,86.2,31.1,86.1,31.1L86.1,31.1z"/>
	<path class="st1" d="M38.8,27.5C38.8,27.5,38.7,27.5,38.8,27.5l-1.1-4.4l-1.5,2.4h-0.1c0,0-0.1,0-0.1-0.1l-0.9-4.1l0.1-0.1
		c0,0,0,0,0.1,0.1l0.9,3.9l1.5-2.4h0.1c0,0,0.1,0,0.1,0.1L38.8,27.5C38.9,27.5,38.8,27.5,38.8,27.5L38.8,27.5z"/>
	<path class="st1" d="M35.9,33.8L35.9,33.8C35.9,33.8,35.8,33.8,35.9,33.8v-1.4l-0.6,0.5h-0.1c0,0,0,0,0-0.1l0.1-1.4
		c0,0,0-0.1,0.1-0.1c0,0,0.1,0,0.1,0.1l0,0l-0.1,1.2l0.6-0.5h0.1c0,0,0,0,0,0.1L35.9,33.8C36,33.8,36,33.8,35.9,33.8L35.9,33.8z"/>
	<path class="st1" d="M55.3,21.8L55.3,21.8v-0.1l0,0l1.2-2L55.1,20c0,0,0,0-0.1,0v-0.1l0,0l1.2-2h0.1V18l0,0l-1.1,1.8l1.4-0.3h0.1
		v0.1L55.3,21.8C55.4,21.7,55.4,21.8,55.3,21.8z"/>
	<path class="st1" d="M30,21.1C29.9,21.1,29.9,21.1,30,21.1l-0.9-0.6v-0.1l0,0h0.1l0.6,0.5v-0.4v-0.1h0.1l0.7,0.6v0.1h-0.1L30,20.5
		V21.1C30.1,21,30.1,21.1,30,21.1L30,21.1z"/>
	<path class="st1" d="M7,10.1L7,10.1C7,10,7,10,7,10l1.3-3.6l-2.2,1H6V7.3l1.2-3.5h0.1l0.1,0.1L6.2,7.1l2.2-1h0.1v0.1L7,10.1
		C7.1,10,7.1,10.1,7,10.1z"/>
	<path class="st1" d="M62.9,58.8L62.9,58.8C62.8,58.8,62.8,58.7,62.9,58.8l0.1-4.1l-2,1.9h-0.1v-0.1l0.2-4.6c0,0,0-0.1,0.1-0.1
		c0,0,0.1,0,0.1,0.1l0,0L61,56.3l2-1.9h0.1v0.1L62.9,58.8C62.9,58.7,62.9,58.7,62.9,58.8z"/>
	<path class="st1" d="M32.1,71.4C32.1,71.4,32,71.4,32.1,71.4l-0.5-3.9l-1.7,2.1h-0.1c0,0-0.1,0-0.1-0.1L29.3,65c0,0,0-0.1,0.1-0.1
		l0,0h0.1l0,0l0.5,4.3l1.7-2.1h0.1c0,0,0.1,0,0.1,0.1l0.4,4.1C32.2,71.4,32.2,71.4,32.1,71.4L32.1,71.4L32.1,71.4z"/>
	<path class="st1" d="M92.4,38C92.3,38,92.3,38,92.4,38l-0.9-2.7L90.6,37h-0.1c0,0-0.1,0-0.1-0.1l-1-3.1v-0.1c0,0,0.1,0,0.1,0.1
		l1,2.9l0.8-1.7h0.1h0.1l0.9,2.8C92.5,37.8,92.5,37.9,92.4,38L92.4,38z"/>
	<path class="st1" d="M29.9,8.7C29.9,8.7,29.9,8.6,29.9,8.7c-0.1-0.1-0.1-0.2,0-0.2l0,0l2-0.4l-1.1-0.7V7.3c0,0,0-0.1,0.1-0.1
		l2.4-0.5l0.1,0.1c0,0,0,0-0.1,0.1L31,7.3L32.1,8v0.1c0,0,0,0.1-0.1,0.1L29.9,8.7L29.9,8.7z"/>
	<path class="st1" d="M66.6,60.1C66.6,60.1,66.5,60,66.6,60.1L66.6,60.1c-0.1-0.1-0.1-0.2,0-0.2l0,0l5.1-0.7l-2.6-2v-0.1
		c0,0,0-0.1,0.1-0.1l4.8-0.6h0.1l0,0c0,0,0,0.1-0.1,0.1l-4.6,0.6l2.6,2v0.1c0,0,0,0.1-0.1,0.1L66.6,60.1L66.6,60.1z"/>
	<path class="st1" d="M54.1,77.6L54.1,77.6C54,77.6,54,77.5,54.1,77.6L54.1,77.6l0.4-0.6h-0.4H54v-0.1l0.6-0.6h0.1l0,0v0.1l0,0
		l-0.4,0.5h0.4h0.1V77L54.1,77.6C54.2,77.6,54.2,77.6,54.1,77.6z"/>
	<path class="st1" d="M59.6,87.8L59.6,87.8L59.6,87.8l0.2-1.3l-0.7,0.4H59v-0.1l0.4-1.5c0,0,0-0.1,0.1-0.1l0,0l0.1,0.1l-0.3,1.3
		l0.7-0.4h0.1v0.1L59.6,87.8C59.7,87.8,59.6,87.8,59.6,87.8L59.6,87.8z"/>
	<path class="st1" d="M3,73.5C2.9,73.5,2.9,73.5,3,73.5L2.3,72l-0.4,0.9H1.8c0,0-0.1,0-0.1-0.1l-0.6-1.5v-0.1l0,0h0.1l0.5,1.3
		l0.4-0.9h0.1c0,0,0.1,0,0.1,0.1L3,73.3C3,73.4,3,73.4,3,73.5L3,73.5z"/>
	<path class="st1" d="M42.4,7.7L42.4,7.7l-1-0.2l-0.1-0.1l0,0l0.1-0.1l0.8,0.2L42,7.1V7c0,0,0,0,0.1,0l1,0.2l0.1,0.1
		c0,0,0,0.1-0.1,0.1l0,0l-0.8-0.2l0.3,0.4v0.1C42.5,7.7,42.4,7.7,42.4,7.7z"/>
	<path class="st1" d="M81.2,54.4L81.2,54.4l-4.4-2v-0.1h0.1l4.1,1.9l-1.1-3v-0.1H80l4.8,2.2v0.1h-0.1l-4.6-2.1L81.2,54.4
		C81.2,54.3,81.2,54.3,81.2,54.4L81.2,54.4z"/>
	<path class="st1" d="M74.5,88.2L74.5,88.2L74.5,88.2l0.7-2.8l-1.7,0.9h-0.1v-0.1l0.8-3.2l0.1-0.1l0.1,0.1l-0.8,3l1.7-0.9h0.1v0.1
		L74.5,88.2C74.6,88.1,74.6,88.2,74.5,88.2z"/>
	<path class="st1" d="M37.2,86L37.2,86C37.1,86,37.1,85.9,37.2,86l1.8-0.9l-1.2-0.5c0,0,0,0,0-0.1v-0.1l1.9-0.8h0.1v0.1l0,0
		l-1.7,0.7l1.2,0.5V85v0.1L37.2,86L37.2,86z"/>
	<path class="st1" d="M64.8,66L64.8,66l-2.9-3l-0.1,2.6c0,0,0,0.1-0.1,0.1h-0.1l-2.7-2.9c0,0,0-0.1,0.1-0.1h0.1l2.6,2.8l0.1-2.6
		c0,0,0-0.1,0.1-0.1H62L64.8,66C64.9,66,64.9,66,64.8,66C64.9,66,64.9,66,64.8,66L64.8,66z"/>
	<path class="st1" d="M79.8,40.8L79.8,40.8C79.8,40.8,79.7,40.8,79.8,40.8l0.1-4.1l-2,1.9h-0.1v-0.1l0.2-4.7c0,0,0-0.1,0.1-0.1
		s0.1,0,0.1,0.1c0,0,0,0,0,0.1L78,38.3l2-1.9h0.1v0.1L79.8,40.8C79.9,40.8,79.9,40.8,79.8,40.8z"/>
	<path class="st1" d="M82.5,24.2L82.5,24.2l-1.9-0.5l-0.1-0.1c0,0,0,0,0.1-0.1l1.7,0.4L81.8,23v-0.1h0.1l1.7,0.4l0.1,0.1l-0.1,0.1
		L82,23.2l0.5,0.9C82.6,24.1,82.6,24.2,82.5,24.2L82.5,24.2L82.5,24.2z"/>
	<path class="st1" d="M90.8,73.6L90.8,73.6C90.7,73.6,90.7,73.5,90.8,73.6C90.7,73.5,90.7,73.5,90.8,73.6l0.2-0.8L90.5,73h-0.1v-0.1
		l0.3-1l0.1-0.1l0.1,0.1l-0.2,0.8l0.4-0.2h0.1v0.1L90.8,73.6L90.8,73.6z"/>
</g>
</svg>
